<?xml version="1.0" encoding="UTF-8"?><svg xmlns="http://www.w3.org/2000/svg" xmlns:xlink="http://www.w3.org/1999/xlink" width="375pt" zoomAndPan="magnify" viewBox="0 0 375 374.999991" height="374.999991pt" preserveAspectRatio="xMidYMid meet" version="1.2"><defs><g/><clipPath xml:id="clip1" id="clip1"><path d="M 155 183 L 220 183 L 220 227.265625 L 155 227.265625 Z M 155 183 "/></clipPath><clipPath xml:id="clip2" id="clip2"><path d="M 159 147.765625 L 216 147.765625 L 216 164 L 159 164 Z M 159 147.765625 "/></clipPath><clipPath xml:id="clip3" id="clip3"><path d="M 147.765625 167 L 227.265625 167 L 227.265625 180 L 147.765625 180 Z M 147.765625 167 "/></clipPath></defs><g xml:id="surface1" id="surface1"><path style=" stroke:none;fill-rule:nonzero;fill:rgb(97.24884%,98.429871%,97.24884%);fill-opacity:1;" d="M 199.453125 201.429688 L 201.4375 201.429688 C 201.832031 201.429688 202.21875 201.390625 202.601562 201.316406 C 202.984375 201.238281 203.359375 201.125 203.71875 200.976562 C 204.082031 200.824219 204.425781 200.640625 204.75 200.425781 C 205.078125 200.207031 205.378906 199.960938 205.65625 199.683594 C 205.933594 199.40625 206.179688 199.105469 206.398438 198.78125 C 206.613281 198.453125 206.796875 198.109375 206.949219 197.75 C 207.097656 197.386719 207.210938 197.015625 207.285156 196.628906 C 207.363281 196.246094 207.402344 195.859375 207.402344 195.46875 C 207.402344 195.203125 207.351562 194.949219 207.25 194.707031 C 207.148438 194.464844 207.003906 194.25 206.820312 194.0625 C 206.632812 193.875 206.417969 193.730469 206.175781 193.632812 C 205.929688 193.53125 205.675781 193.480469 205.414062 193.480469 L 195.476562 193.480469 C 195.210938 193.480469 194.960938 193.53125 194.714844 193.632812 C 194.472656 193.730469 194.257812 193.875 194.070312 194.0625 C 193.882812 194.25 193.742188 194.464844 193.640625 194.707031 C 193.539062 194.949219 193.488281 195.203125 193.488281 195.46875 C 193.488281 195.859375 193.527344 196.246094 193.601562 196.628906 C 193.679688 197.015625 193.792969 197.386719 193.941406 197.75 C 194.09375 198.109375 194.277344 198.453125 194.492188 198.78125 C 194.710938 199.105469 194.957031 199.40625 195.234375 199.683594 C 195.511719 199.960938 195.8125 200.207031 196.140625 200.425781 C 196.464844 200.640625 196.808594 200.824219 197.167969 200.976562 C 197.53125 201.125 197.902344 201.238281 198.289062 201.316406 C 198.671875 201.390625 199.058594 201.429688 199.453125 201.429688 Z M 199.453125 201.429688 "/><path style=" stroke:none;fill-rule:nonzero;fill:rgb(97.24884%,98.429871%,97.24884%);fill-opacity:1;" d="M 173.613281 201.429688 L 175.601562 201.429688 C 175.992188 201.429688 176.378906 201.390625 176.765625 201.316406 C 177.148438 201.238281 177.519531 201.125 177.882812 200.976562 C 178.246094 200.824219 178.589844 200.640625 178.914062 200.425781 C 179.238281 200.207031 179.539062 199.960938 179.816406 199.683594 C 180.09375 199.40625 180.339844 199.105469 180.558594 198.78125 C 180.777344 198.453125 180.960938 198.109375 181.109375 197.75 C 181.261719 197.386719 181.371094 197.015625 181.449219 196.628906 C 181.527344 196.246094 181.5625 195.859375 181.5625 195.46875 C 181.5625 195.203125 181.511719 194.949219 181.414062 194.707031 C 181.3125 194.464844 181.167969 194.25 180.980469 194.0625 C 180.796875 193.875 180.582031 193.730469 180.335938 193.632812 C 180.09375 193.53125 179.839844 193.480469 179.578125 193.480469 L 169.640625 193.480469 C 169.375 193.480469 169.121094 193.53125 168.878906 193.632812 C 168.636719 193.730469 168.417969 193.875 168.234375 194.0625 C 168.046875 194.25 167.902344 194.464844 167.800781 194.707031 C 167.703125 194.949219 167.652344 195.203125 167.652344 195.46875 C 167.652344 195.859375 167.691406 196.246094 167.765625 196.628906 C 167.84375 197.015625 167.957031 197.386719 168.105469 197.75 C 168.253906 198.109375 168.4375 198.453125 168.65625 198.78125 C 168.875 199.105469 169.121094 199.40625 169.398438 199.683594 C 169.675781 199.960938 169.976562 200.207031 170.300781 200.425781 C 170.625 200.640625 170.96875 200.824219 171.332031 200.976562 C 171.695312 201.125 172.066406 201.238281 172.449219 201.316406 C 172.835938 201.390625 173.222656 201.429688 173.613281 201.429688 Z M 173.613281 201.429688 "/><g clip-rule="nonzero" clip-path="url(#clip1)"><path style=" stroke:none;fill-rule:nonzero;fill:rgb(97.24884%,98.429871%,97.24884%);fill-opacity:1;" d="M 155.726562 195.46875 C 155.726562 212.992188 170 227.265625 187.527344 227.265625 C 205.050781 227.265625 219.328125 212.992188 219.328125 195.46875 L 219.328125 183.542969 L 155.726562 183.542969 Z M 191.5 215.34375 L 183.550781 215.34375 C 183.289062 215.34375 183.035156 215.292969 182.789062 215.191406 C 182.546875 215.089844 182.332031 214.945312 182.144531 214.761719 C 181.960938 214.574219 181.816406 214.359375 181.714844 214.117188 C 181.613281 213.871094 181.5625 213.617188 181.5625 213.355469 C 181.5625 213.089844 181.613281 212.835938 181.714844 212.59375 C 181.816406 212.351562 181.960938 212.136719 182.144531 211.949219 C 182.332031 211.761719 182.546875 211.621094 182.789062 211.519531 C 183.035156 211.417969 183.289062 211.367188 183.550781 211.367188 L 191.5 211.367188 C 191.765625 211.367188 192.019531 211.417969 192.261719 211.519531 C 192.503906 211.621094 192.71875 211.761719 192.90625 211.949219 C 193.09375 212.136719 193.238281 212.351562 193.335938 212.59375 C 193.4375 212.835938 193.488281 213.089844 193.488281 213.355469 C 193.488281 213.617188 193.4375 213.871094 193.335938 214.117188 C 193.238281 214.359375 193.09375 214.574219 192.90625 214.761719 C 192.71875 214.945312 192.503906 215.089844 192.261719 215.191406 C 192.019531 215.292969 191.765625 215.34375 191.5 215.34375 Z M 169.640625 189.503906 L 179.578125 189.503906 C 180.191406 189.507812 180.792969 189.601562 181.375 189.789062 C 181.960938 189.976562 182.503906 190.25 183.007812 190.605469 C 183.507812 190.960938 183.945312 191.382812 184.316406 191.875 C 184.683594 192.363281 184.972656 192.898438 185.175781 193.480469 L 189.875 193.480469 C 190.082031 192.898438 190.367188 192.363281 190.738281 191.875 C 191.109375 191.382812 191.542969 190.960938 192.046875 190.605469 C 192.546875 190.25 193.089844 189.976562 193.675781 189.789062 C 194.261719 189.601562 194.863281 189.507812 195.476562 189.503906 L 205.414062 189.503906 C 205.804688 189.503906 206.191406 189.542969 206.578125 189.621094 C 206.960938 189.695312 207.332031 189.808594 207.695312 189.957031 C 208.058594 190.109375 208.402344 190.292969 208.726562 190.507812 C 209.050781 190.726562 209.351562 190.972656 209.628906 191.25 C 209.90625 191.527344 210.152344 191.828125 210.371094 192.15625 C 210.589844 192.480469 210.773438 192.824219 210.921875 193.1875 C 211.074219 193.546875 211.183594 193.921875 211.261719 194.304688 C 211.339844 194.6875 211.375 195.074219 211.375 195.46875 C 211.375 196.121094 211.308594 196.765625 211.183594 197.40625 C 211.054688 198.042969 210.863281 198.664062 210.613281 199.265625 C 210.363281 199.871094 210.058594 200.441406 209.695312 200.984375 C 209.332031 201.527344 208.921875 202.027344 208.460938 202.488281 C 208 202.949219 207.496094 203.363281 206.957031 203.722656 C 206.414062 204.085938 205.839844 204.394531 205.238281 204.644531 C 204.636719 204.894531 204.015625 205.082031 203.375 205.210938 C 202.738281 205.339844 202.089844 205.402344 201.4375 205.40625 L 199.453125 205.40625 C 198.882812 205.40625 198.320312 205.355469 197.757812 205.261719 C 197.199219 205.164062 196.648438 205.019531 196.113281 204.828125 C 195.578125 204.636719 195.0625 204.402344 194.570312 204.125 C 194.074219 203.84375 193.605469 203.523438 193.164062 203.164062 C 192.726562 202.804688 192.316406 202.410156 191.945312 201.980469 C 191.574219 201.554688 191.238281 201.09375 190.945312 200.609375 C 190.652344 200.121094 190.402344 199.613281 190.195312 199.085938 C 189.988281 198.554688 189.828125 198.011719 189.710938 197.453125 L 185.339844 197.453125 C 185.226562 198.011719 185.066406 198.554688 184.859375 199.085938 C 184.652344 199.613281 184.402344 200.121094 184.109375 200.609375 C 183.8125 201.09375 183.480469 201.550781 183.109375 201.980469 C 182.734375 202.410156 182.328125 202.804688 181.886719 203.164062 C 181.449219 203.523438 180.980469 203.84375 180.484375 204.121094 C 179.988281 204.402344 179.472656 204.636719 178.9375 204.828125 C 178.402344 205.019531 177.855469 205.164062 177.292969 205.257812 C 176.734375 205.355469 176.171875 205.40625 175.601562 205.40625 L 173.613281 205.40625 C 172.960938 205.402344 172.316406 205.339844 171.675781 205.210938 C 171.035156 205.082031 170.417969 204.894531 169.8125 204.644531 C 169.210938 204.394531 168.640625 204.085938 168.097656 203.722656 C 167.554688 203.363281 167.054688 202.949219 166.59375 202.488281 C 166.132812 202.027344 165.71875 201.527344 165.355469 200.984375 C 164.992188 200.441406 164.6875 199.871094 164.4375 199.265625 C 164.1875 198.664062 164 198.042969 163.871094 197.40625 C 163.742188 196.765625 163.675781 196.121094 163.675781 195.46875 C 163.675781 195.074219 163.714844 194.6875 163.789062 194.304688 C 163.867188 193.921875 163.980469 193.546875 164.128906 193.1875 C 164.28125 192.824219 164.464844 192.480469 164.679688 192.15625 C 164.898438 191.828125 165.144531 191.527344 165.421875 191.25 C 165.699219 190.972656 166 190.726562 166.328125 190.507812 C 166.652344 190.292969 166.996094 190.109375 167.355469 189.957031 C 167.71875 189.808594 168.089844 189.695312 168.476562 189.621094 C 168.859375 189.542969 169.246094 189.503906 169.640625 189.503906 Z M 169.640625 189.503906 "/></g><g clip-rule="nonzero" clip-path="url(#clip2)"><path style=" stroke:none;fill-rule:nonzero;fill:rgb(97.24884%,98.429871%,97.24884%);fill-opacity:1;" d="M 211.320312 149.265625 C 211.207031 148.828125 210.96875 148.46875 210.609375 148.1875 C 210.25 147.910156 209.84375 147.769531 209.390625 147.765625 L 193.488281 147.765625 C 192.824219 147.765625 192.292969 148.027344 191.898438 148.5625 L 187.527344 154.398438 L 183.152344 148.5625 C 182.757812 148.027344 182.226562 147.765625 181.5625 147.765625 L 165.664062 147.765625 C 165.207031 147.769531 164.800781 147.910156 164.441406 148.1875 C 164.082031 148.46875 163.84375 148.828125 163.730469 149.265625 L 159.59375 163.667969 L 215.695312 163.667969 Z M 211.320312 149.265625 "/></g><g clip-rule="nonzero" clip-path="url(#clip3)"><path style=" stroke:none;fill-rule:nonzero;fill:rgb(97.24884%,98.429871%,97.24884%);fill-opacity:1;" d="M 225.289062 175.59375 L 218.894531 175.59375 L 216.90625 167.640625 L 158.453125 167.640625 L 156.160156 175.59375 L 149.765625 175.59375 C 149.5 175.59375 149.246094 175.644531 149.003906 175.742188 C 148.761719 175.84375 148.542969 175.988281 148.359375 176.175781 C 148.171875 176.359375 148.027344 176.574219 147.925781 176.820312 C 147.828125 177.0625 147.777344 177.316406 147.777344 177.578125 C 147.777344 177.84375 147.828125 178.097656 147.925781 178.339844 C 148.027344 178.582031 148.171875 178.800781 148.359375 178.984375 C 148.542969 179.171875 148.761719 179.316406 149.003906 179.417969 C 149.246094 179.515625 149.5 179.566406 149.765625 179.566406 L 225.289062 179.566406 C 225.550781 179.566406 225.804688 179.515625 226.050781 179.417969 C 226.292969 179.316406 226.507812 179.171875 226.695312 178.984375 C 226.878906 178.800781 227.023438 178.582031 227.125 178.339844 C 227.226562 178.097656 227.277344 177.84375 227.277344 177.578125 C 227.277344 177.316406 227.226562 177.0625 227.125 176.820312 C 227.023438 176.574219 226.878906 176.359375 226.695312 176.175781 C 226.507812 175.988281 226.292969 175.84375 226.050781 175.742188 C 225.804688 175.644531 225.550781 175.59375 225.289062 175.59375 Z M 225.289062 175.59375 "/></g><g style="fill:rgb(100%,100%,100%);fill-opacity:1;"><g transform="translate(233.282523, 199.587438)"><path style="stroke:none;" d="M 8.0625 -24.550781 C 9.179688 -25.667969 10.367188 -26.316406 11.664062 -26.316406 C 14.113281 -26.316406 15.875 -24.875 17.605469 -23.148438 L 13.644531 -11.84375 C 12.203125 -12.742188 10.332031 -13.464844 8.242188 -13.464844 C 4.714844 -13.464844 0.71875 -11.664062 -0.253906 -7.453125 C -0.394531 -6.839844 -0.433594 -6.265625 -0.433594 -5.722656 C -0.433594 -1.585938 3.3125 0.972656 7.667969 0.972656 C 10.945312 0.972656 14.003906 -0.394531 16.054688 -3.203125 C 17.929688 -1.441406 20.269531 0 23.652344 0 C 28.546875 0 32.867188 -3.058594 35.027344 -9.539062 C 35.101562 -9.757812 35.136719 -9.972656 35.136719 -10.152344 C 35.136719 -11.304688 34.054688 -12.058594 32.941406 -12.058594 C 32.039062 -12.058594 31.105469 -11.554688 30.671875 -10.402344 C 29.089844 -6.300781 26.785156 -5.113281 24.191406 -5.113281 C 21.707031 -5.113281 20.269531 -6.804688 18.503906 -8.566406 L 22.175781 -19.367188 C 23.328125 -18.503906 24.730469 -17.640625 26.425781 -17.746094 C 30.023438 -17.746094 33.265625 -21.203125 33.265625 -25.273438 C 33.265625 -29.269531 30.3125 -31.714844 27.253906 -31.714844 C 24.550781 -31.714844 21.851562 -30.78125 19.800781 -27.972656 C 17.929688 -29.734375 15.589844 -31.246094 12.167969 -31.246094 C 9.070312 -31.246094 6.695312 -30.347656 4.535156 -27.792969 C 4.140625 -27.324219 3.960938 -26.785156 3.960938 -26.28125 C 3.960938 -24.984375 5.074219 -23.722656 6.335938 -23.722656 C 6.910156 -23.722656 7.523438 -23.976562 8.0625 -24.550781 Z M 26.746094 -26.425781 C 27.683594 -26.425781 28.296875 -25.921875 28.296875 -24.804688 C 28.296875 -23.6875 27.433594 -23.039062 26.425781 -23.039062 C 25.378906 -23.039062 24.660156 -23.761719 24.226562 -24.335938 C 24.875 -25.777344 25.8125 -26.425781 26.746094 -26.425781 Z M 7.523438 -3.601562 C 6.085938 -3.601562 5.257812 -4.609375 5.257812 -5.796875 C 5.257812 -6.046875 5.257812 -6.300781 5.328125 -6.550781 C 5.722656 -7.882812 6.984375 -8.929688 8.640625 -8.929688 C 9.9375 -8.929688 11.015625 -8.316406 12.058594 -7.34375 C 10.90625 -4.789062 9.179688 -3.601562 7.523438 -3.601562 Z M 7.523438 -3.601562 "/></g></g><g style="fill:rgb(100%,100%,100%);fill-opacity:1;"><g transform="translate(262.730584, 199.587438)"><path style="stroke:none;" d="M 18.214844 -10.152344 C 16.632812 -5.976562 12.851562 -4.285156 9.792969 -4.285156 C 7.164062 -4.285156 5.507812 -5.542969 5.507812 -7.199219 C 5.507812 -7.523438 5.542969 -7.847656 5.6875 -8.207031 L 5.976562 -8.890625 C 7.019531 -8.242188 8.316406 -7.8125 9.757812 -7.8125 C 13.03125 -7.8125 15.910156 -9.863281 16.882812 -13.105469 C 17.0625 -13.789062 17.171875 -14.472656 17.171875 -15.085938 C 17.171875 -18.503906 14.472656 -21.132812 10.402344 -21.132812 C 7.199219 -21.132812 4.066406 -19.261719 2.808594 -15.660156 L 0.683594 -9.503906 C 0.394531 -8.640625 0.214844 -7.777344 0.214844 -6.949219 C 0.214844 -2.664062 4.246094 0 9.503906 0 C 14.507812 0 20.195312 -2.449219 22.570312 -9.324219 C 22.679688 -9.613281 22.714844 -9.863281 22.714844 -10.078125 C 22.714844 -11.195312 21.707031 -11.808594 20.628906 -11.808594 C 19.621094 -11.808594 18.539062 -11.269531 18.214844 -10.152344 Z M 10.296875 -16.882812 C 11.304688 -16.882812 11.953125 -16.054688 11.953125 -15.011719 C 11.953125 -14.722656 11.914062 -14.4375 11.808594 -14.148438 C 11.449219 -12.960938 10.367188 -12.527344 9.289062 -12.527344 C 8.605469 -12.527344 7.921875 -12.671875 7.414062 -12.960938 L 8.171875 -15.121094 C 8.566406 -16.234375 9.46875 -16.882812 10.296875 -16.882812 Z M 10.296875 -16.882812 "/></g></g><g style="fill:rgb(100%,100%,100%);fill-opacity:1;"><g transform="translate(279.794617, 199.587438)"><path style="stroke:none;" d="M 19.117188 -10.1875 C 18.253906 -8.0625 16.992188 -6.589844 15.335938 -5.617188 C 15.40625 -6.085938 15.480469 -6.515625 15.480469 -6.984375 C 15.480469 -9.070312 14.363281 -11.050781 13.355469 -12.742188 C 12.636719 -13.96875 11.914062 -15.191406 11.773438 -16.308594 C 12.78125 -16.738281 13.570312 -17.890625 13.570312 -18.972656 C 13.570312 -20.519531 12.382812 -21.960938 10.585938 -21.960938 C 9.214844 -21.960938 7.847656 -21.277344 7.164062 -19.871094 C 5.761719 -17.136719 4.246094 -14.363281 2.808594 -11.664062 C 0.394531 -11.050781 -0.792969 -8.316406 -0.792969 -6.011719 C -0.792969 -2.484375 2.734375 0.253906 9.109375 0.253906 C 15.371094 0.253906 20.988281 -2.125 23.507812 -9.394531 C 23.578125 -9.539062 23.578125 -9.71875 23.578125 -9.863281 C 23.578125 -10.90625 22.390625 -11.664062 21.238281 -11.664062 C 20.375 -11.664062 19.511719 -11.230469 19.117188 -10.1875 Z M 7.703125 -11.160156 L 8.027344 -11.84375 C 9.109375 -10.546875 9.972656 -8.820312 9.972656 -7.128906 C 9.972656 -5.4375 9.070312 -4.03125 7.164062 -3.960938 C 5.941406 -3.960938 4.859375 -4.5 4.464844 -5.4375 C 4.753906 -5.363281 5.039062 -5.363281 5.292969 -5.363281 C 7.378906 -5.363281 8.605469 -7.128906 8.605469 -8.890625 C 8.605469 -9.71875 8.316406 -10.546875 7.703125 -11.160156 Z M 7.703125 -11.160156 "/></g></g><g style="fill:rgb(100%,100%,100%);fill-opacity:1;"><g transform="translate(297.758647, 199.587438)"><path style="stroke:none;" d="M 19.117188 -10.1875 C 18.253906 -8.0625 16.992188 -6.589844 15.335938 -5.617188 C 15.40625 -6.085938 15.480469 -6.515625 15.480469 -6.984375 C 15.480469 -9.070312 14.363281 -11.050781 13.355469 -12.742188 C 12.636719 -13.96875 11.914062 -15.191406 11.773438 -16.308594 C 12.78125 -16.738281 13.570312 -17.890625 13.570312 -18.972656 C 13.570312 -20.519531 12.382812 -21.960938 10.585938 -21.960938 C 9.214844 -21.960938 7.847656 -21.277344 7.164062 -19.871094 C 5.761719 -17.136719 4.246094 -14.363281 2.808594 -11.664062 C 0.394531 -11.050781 -0.792969 -8.316406 -0.792969 -6.011719 C -0.792969 -2.484375 2.734375 0.253906 9.109375 0.253906 C 15.371094 0.253906 20.988281 -2.125 23.507812 -9.394531 C 23.578125 -9.539062 23.578125 -9.71875 23.578125 -9.863281 C 23.578125 -10.90625 22.390625 -11.664062 21.238281 -11.664062 C 20.375 -11.664062 19.511719 -11.230469 19.117188 -10.1875 Z M 7.703125 -11.160156 L 8.027344 -11.84375 C 9.109375 -10.546875 9.972656 -8.820312 9.972656 -7.128906 C 9.972656 -5.4375 9.070312 -4.03125 7.164062 -3.960938 C 5.941406 -3.960938 4.859375 -4.5 4.464844 -5.4375 C 4.753906 -5.363281 5.039062 -5.363281 5.292969 -5.363281 C 7.378906 -5.363281 8.605469 -7.128906 8.605469 -8.890625 C 8.605469 -9.71875 8.316406 -10.546875 7.703125 -11.160156 Z M 7.703125 -11.160156 "/></g></g><g style="fill:rgb(100%,100%,100%);fill-opacity:1;"><g transform="translate(57.335544, 197.333365)"><path style="stroke:none;" d="M 17.328125 -24.734375 C 17.546875 -24.734375 17.71875 -24.65625 17.84375 -24.5 C 17.976562 -24.34375 18.046875 -24.15625 18.046875 -23.9375 C 17.660156 -19.9375 17.429688 -16.222656 17.359375 -12.796875 C 17.335938 -12.441406 17.328125 -11.90625 17.328125 -11.1875 L 17.296875 -9.5625 L 17.109375 -9.5625 C 16.960938 -9.5625 16.878906 -9.550781 16.859375 -9.53125 C 16.835938 -9.5 16.679688 -9.484375 16.390625 -9.484375 L 16.46875 -9.421875 L 16.390625 -9.34375 L 16.46875 -9.34375 L 16.609375 -9.390625 C 16.660156 -9.359375 16.78125 -9.34375 16.96875 -9.34375 L 17.21875 -9.34375 C 17.269531 -9.34375 17.296875 -9.332031 17.296875 -9.3125 L 17.296875 -9.234375 L 17.109375 -9.234375 L 17.1875 -9.203125 L 17.109375 -9.125 L 17.296875 -9.125 C 17.265625 -7.3125 17.25 -4.59375 17.25 -0.96875 C 17.25 -0.46875 17.007812 -0.21875 16.53125 -0.21875 L 11.796875 -0.109375 C 11.460938 -0.109375 11.222656 -0.265625 11.078125 -0.578125 L 10.53125 -2.078125 L 10.5625 -2.078125 L 10.5625 -2.125 L 10.5 -2.125 L 7.65625 -9.671875 C 7.851562 -9.765625 8 -9.847656 8.09375 -9.921875 L 7.90625 -9.890625 L 7.84375 -9.921875 L 7.65625 -9.890625 L 7.59375 -9.84375 L 6.21875 -13.453125 L 5.96875 -0.71875 C 5.914062 -0.238281 5.664062 0 5.21875 0 L 0.359375 0 C 0.140625 0 -0.03125 -0.0703125 -0.15625 -0.21875 C -0.289062 -0.363281 -0.359375 -0.539062 -0.359375 -0.75 C -0.304688 -2 -0.210938 -3.773438 -0.078125 -6.078125 L -0.03125 -6.9375 C 0.226562 -11.445312 0.429688 -14.644531 0.578125 -16.53125 L 1.21875 -24.046875 C 1.25 -24.484375 1.488281 -24.710938 1.9375 -24.734375 L 5.390625 -24.84375 C 6.160156 -24.894531 6.820312 -24.703125 7.375 -24.265625 C 7.925781 -23.835938 8.367188 -23.238281 8.703125 -22.46875 L 8.734375 -22.4375 L 11.71875 -14.640625 L 12.296875 -24.15625 C 12.296875 -24.613281 12.546875 -24.84375 13.046875 -24.84375 Z M 4.171875 -19.703125 C 4.117188 -19.703125 4.070312 -19.664062 4.03125 -19.59375 L 4.25 -19.484375 C 4.25 -19.578125 4.222656 -19.648438 4.171875 -19.703125 Z M 3.734375 -17.828125 L 3.734375 -17.9375 L 3.515625 -17.9375 L 3.515625 -17.828125 Z M 4.3125 -17.65625 C 4.40625 -17.726562 4.453125 -17.8125 4.453125 -17.90625 L 4.25 -17.90625 L 4.25 -17.765625 C 4.289062 -17.710938 4.3125 -17.675781 4.3125 -17.65625 Z M 6 -17.6875 C 5.882812 -17.8125 5.800781 -17.882812 5.75 -17.90625 C 5.75 -17.8125 5.773438 -17.710938 5.828125 -17.609375 L 5.9375 -17.65625 Z M 5.171875 -17.4375 C 5.242188 -17.4375 5.34375 -17.472656 5.46875 -17.546875 L 5.5 -17.609375 L 4.859375 -17.609375 L 4.859375 -17.71875 L 4.5625 -17.71875 L 4.5625 -17.578125 L 4.859375 -17.578125 L 4.859375 -17.609375 L 4.921875 -17.546875 L 5.0625 -17.46875 C 5.0625 -17.445312 5.097656 -17.4375 5.171875 -17.4375 Z M 5.71875 -17.40625 L 5.78125 -17.515625 L 5.5 -17.578125 L 5.5 -17.46875 Z M 5.96875 -17.359375 C 6.082031 -17.359375 6.175781 -17.394531 6.25 -17.46875 C 6.15625 -17.539062 6.070312 -17.578125 6 -17.578125 C 5.957031 -17.535156 5.945312 -17.5 5.96875 -17.46875 Z M 4.78125 -17.328125 C 4.851562 -17.210938 4.960938 -17.1875 5.109375 -17.25 C 5.035156 -17.300781 4.925781 -17.328125 4.78125 -17.328125 Z M 4.25 -15.421875 L 4.25 -15.28125 L 4.53125 -15.28125 L 4.53125 -15.421875 Z M 5.78125 -14.953125 L 6.140625 -14.953125 L 6.140625 -15.09375 L 5.78125 -15.09375 Z M 6.296875 -13.953125 C 6.296875 -14.023438 6.210938 -14.097656 6.046875 -14.171875 C 6.085938 -13.972656 6.144531 -13.851562 6.21875 -13.8125 Z M 8.84375 -14.09375 C 8.84375 -13.96875 8.820312 -13.890625 8.78125 -13.859375 C 8.75 -13.828125 8.648438 -13.8125 8.484375 -13.8125 L 8.5625 -13.703125 L 9.03125 -14.015625 Z M 5.828125 -13.8125 L 5.828125 -14.015625 L 5.578125 -14.015625 L 5.578125 -13.8125 Z M 8.3125 -13.515625 L 8.3125 -13.734375 L 8.125 -13.734375 L 8.125 -13.515625 Z M 4.921875 -13.625 C 5.015625 -13.507812 5.09375 -13.457031 5.15625 -13.46875 C 5.21875 -13.476562 5.257812 -13.53125 5.28125 -13.625 Z M 8.765625 -13.453125 C 8.765625 -13.453125 8.765625 -13.472656 8.765625 -13.515625 L 8.703125 -13.59375 L 8.671875 -13.484375 L 8.734375 -13.34375 L 8.765625 -13.34375 Z M 6.4375 -13.515625 C 6.65625 -13.441406 6.820312 -13.441406 6.9375 -13.515625 Z M 5.640625 -13.234375 L 5.640625 -13.09375 L 6 -13.09375 L 6 -13.234375 Z M 4.53125 -12.875 C 4.53125 -12.914062 4.503906 -12.988281 4.453125 -13.09375 L 4.453125 -13.15625 C 4.285156 -13.15625 4.164062 -13.117188 4.09375 -13.046875 L 4.09375 -12.875 Z M 8.921875 -12.875 L 9.0625 -12.875 L 9.0625 -13.015625 L 8.921875 -13.015625 Z M 8.703125 -12.546875 L 8.703125 -12.65625 L 8.453125 -12.65625 L 8.453125 -12.546875 Z M 11.859375 -12.546875 L 11.9375 -12.65625 L 11.859375 -12.65625 L 11.828125 -12.578125 Z M 4.3125 -12.265625 C 4.382812 -12.304688 4.421875 -12.34375 4.421875 -12.375 C 4.421875 -12.46875 4.3125 -12.523438 4.09375 -12.546875 L 4.09375 -12.328125 Z M 4.78125 -12.21875 L 4.78125 -12.375 L 4.53125 -12.375 L 4.53125 -12.21875 Z M 9.03125 -11.9375 C 8.976562 -12.082031 8.953125 -12.226562 8.953125 -12.375 C 8.929688 -12.34375 8.910156 -12.320312 8.890625 -12.3125 C 8.878906 -12.300781 8.875 -12.285156 8.875 -12.265625 L 8.765625 -12.15625 L 8.671875 -12.109375 L 8.625 -12.046875 C 8.675781 -11.992188 8.703125 -11.957031 8.703125 -11.9375 L 8.765625 -11.90625 Z M 7.625 -11.75 C 7.625 -11.75 7.617188 -11.753906 7.609375 -11.765625 C 7.597656 -11.785156 7.59375 -11.796875 7.59375 -11.796875 C 7.539062 -11.796875 7.488281 -11.816406 7.4375 -11.859375 C 7.394531 -11.859375 7.375 -11.8125 7.375 -11.71875 L 7.375 -11.65625 L 7.625 -11.65625 Z M 4.34375 -11.71875 C 4.226562 -11.644531 4.171875 -11.5625 4.171875 -11.46875 L 4.53125 -11.46875 Z M 13.703125 -11.71875 L 13.703125 -11.609375 L 13.765625 -11.609375 L 13.765625 -11.71875 Z M 5.25 -11.390625 L 5.25 -11.109375 L 5.46875 -11.109375 L 5.46875 -11.390625 Z M 3.59375 -11.359375 L 3.59375 -11.109375 L 3.890625 -11.109375 L 3.890625 -11.359375 Z M 9.09375 -10.78125 C 9.09375 -10.632812 9.203125 -10.5625 9.421875 -10.5625 L 9.421875 -10.78125 Z M 10.28125 -10.3125 C 10.039062 -10.4375 9.875 -10.5 9.78125 -10.5 C 9.78125 -10.375 9.875 -10.289062 10.0625 -10.25 C 10.09375 -10.269531 10.128906 -10.28125 10.171875 -10.28125 Z M 8.984375 -10.0625 L 9.125 -10.28125 L 8.921875 -10.3125 L 8.8125 -10.140625 Z M 9.09375 -10.203125 L 9.125 -10.109375 L 9.5625 -10.203125 L 9.484375 -10.3125 Z M 12.875 -10.140625 L 12.984375 -10.28125 L 12.828125 -10.3125 L 12.734375 -10.203125 Z M 10.359375 -10.03125 L 10.3125 -10.171875 L 10.03125 -10.109375 L 10.0625 -10 Z M 3.09375 -9.8125 C 3.238281 -9.8125 3.359375 -9.835938 3.453125 -9.890625 L 3.375 -10.109375 C 3.1875 -10.003906 3.09375 -9.90625 3.09375 -9.8125 Z M 8.703125 -9.921875 C 8.609375 -10.015625 8.523438 -10.078125 8.453125 -10.109375 C 8.421875 -10.035156 8.335938 -9.984375 8.203125 -9.953125 C 8.222656 -9.929688 8.257812 -9.921875 8.3125 -9.921875 L 8.375 -9.890625 L 8.515625 -9.8125 L 8.625 -9.84375 Z M 3.890625 -9.84375 L 3.890625 -9.703125 L 4.171875 -9.8125 L 4.09375 -9.953125 Z M 4.3125 -9.34375 C 4.09375 -9.46875 3.984375 -9.53125 3.984375 -9.53125 L 3.890625 -9.59375 L 3.515625 -9.671875 L 3.59375 -9.34375 Z M 9.171875 -8.984375 C 9.140625 -9.128906 9.066406 -9.203125 8.953125 -9.203125 C 8.929688 -9.179688 8.929688 -9.144531 8.953125 -9.09375 C 8.953125 -9.09375 8.957031 -9.085938 8.96875 -9.078125 C 8.976562 -9.066406 8.984375 -9.0625 8.984375 -9.0625 Z M 12.734375 -9.03125 C 12.773438 -8.90625 12.820312 -8.832031 12.875 -8.8125 C 12.914062 -8.832031 12.925781 -8.890625 12.90625 -8.984375 L 12.765625 -8.984375 Z M 9.203125 -8.765625 L 9.234375 -8.765625 C 9.265625 -8.765625 9.300781 -8.789062 9.34375 -8.84375 L 9.390625 -8.84375 L 9.421875 -8.875 L 9.125 -8.953125 L 9.125 -8.734375 Z M 10.71875 -8.671875 L 10.640625 -8.921875 L 10.53125 -8.875 L 10.53125 -8.671875 Z M 4.53125 -8.703125 L 4.53125 -8.875 L 4.171875 -8.875 L 4.171875 -8.703125 Z M 9.453125 -8.34375 L 9.640625 -8.265625 L 9.703125 -8.40625 L 9.53125 -8.453125 Z M 4.390625 -8.375 L 4.390625 -8.125 L 4.609375 -8.125 L 4.609375 -8.375 Z M 9.03125 -8.125 C 8.976562 -8.125 8.9375 -8.101562 8.90625 -8.0625 C 8.882812 -8.03125 8.898438 -8.003906 8.953125 -7.984375 L 9.171875 -8.015625 Z M 10.53125 -7.796875 C 10.507812 -7.773438 10.472656 -7.765625 10.421875 -7.765625 L 10.359375 -7.765625 C 10.359375 -7.742188 10.40625 -7.660156 10.5 -7.515625 L 10.640625 -7.328125 C 10.734375 -7.378906 10.804688 -7.429688 10.859375 -7.484375 C 10.878906 -7.503906 10.921875 -7.53125 10.984375 -7.5625 C 11.046875 -7.601562 11.097656 -7.644531 11.140625 -7.6875 L 10.9375 -7.65625 L 10.859375 -7.65625 L 10.78125 -7.625 L 10.71875 -7.59375 C 10.664062 -7.632812 10.640625 -7.664062 10.640625 -7.6875 C 10.640625 -7.738281 10.613281 -7.773438 10.5625 -7.796875 Z M 9.640625 -7.65625 L 9.5625 -7.765625 L 9.3125 -7.734375 L 9.390625 -7.59375 Z M 4.171875 -7.546875 C 4.023438 -7.546875 3.953125 -7.535156 3.953125 -7.515625 C 3.910156 -7.492188 3.890625 -7.457031 3.890625 -7.40625 L 4.09375 -7.265625 L 4.171875 -7.4375 Z M 11.140625 -7.296875 L 11.03125 -7.265625 L 11.078125 -7.328125 L 10.78125 -7.328125 C 10.757812 -7.304688 10.710938 -7.296875 10.640625 -7.296875 C 10.660156 -7.203125 10.707031 -7.15625 10.78125 -7.15625 L 10.859375 -7.078125 C 10.929688 -7.148438 10.96875 -7.1875 10.96875 -7.1875 L 11.296875 -7.1875 L 11.578125 -7.265625 L 11.5 -7.375 L 11.21875 -7.296875 Z M 11.796875 -6.96875 L 11.9375 -7.046875 L 11.828125 -7.265625 L 11.65625 -7.1875 Z M 9.0625 -7.078125 C 9.132812 -7.054688 9.242188 -7.054688 9.390625 -7.078125 C 9.316406 -7.171875 9.207031 -7.21875 9.0625 -7.21875 Z M 5.6875 -6.96875 L 5.6875 -6.765625 L 5.9375 -6.765625 L 5.9375 -6.96875 Z M 10.859375 -6.71875 C 11.003906 -6.625 11.171875 -6.601562 11.359375 -6.65625 L 11.359375 -6.765625 C 11.359375 -6.859375 11.285156 -6.914062 11.140625 -6.9375 L 10.859375 -6.859375 Z M 9.890625 -6.6875 L 9.890625 -6.859375 L 9.75 -6.859375 L 9.75 -6.6875 Z M 10.640625 -6.609375 C 10.617188 -6.660156 10.578125 -6.691406 10.515625 -6.703125 C 10.453125 -6.710938 10.398438 -6.734375 10.359375 -6.765625 L 10.203125 -6.796875 L 10.359375 -6.546875 Z M 12.734375 -6.109375 C 12.867188 -6.066406 12.953125 -6.046875 12.984375 -6.046875 C 13.023438 -6.066406 13.039062 -6.097656 13.03125 -6.140625 C 13.019531 -6.191406 12.988281 -6.226562 12.9375 -6.25 Z M 11.359375 -5.609375 L 11.5 -5.640625 L 11.296875 -6.140625 L 11.140625 -6.109375 Z M 9.75 -6.109375 L 9.75 -5.9375 L 10 -5.9375 L 10 -6.109375 Z M 9.953125 -5.609375 C 9.910156 -5.660156 9.925781 -5.742188 10 -5.859375 L 9.640625 -5.75 C 9.640625 -5.707031 9.6875 -5.6875 9.78125 -5.6875 C 9.78125 -5.65625 9.800781 -5.640625 9.84375 -5.640625 Z M 12.328125 -5.03125 C 12.378906 -4.988281 12.425781 -4.96875 12.46875 -4.96875 L 12.765625 -5.03125 C 12.472656 -5.175781 12.316406 -5.296875 12.296875 -5.390625 L 12.296875 -5.578125 C 12.296875 -5.578125 12.300781 -5.582031 12.3125 -5.59375 C 12.320312 -5.601562 12.328125 -5.609375 12.328125 -5.609375 L 12.296875 -5.640625 L 12.078125 -5.578125 C 12.078125 -5.546875 12.019531 -5.519531 11.90625 -5.5 L 11.828125 -5.421875 L 11.71875 -5.359375 L 11.96875 -5.328125 L 12.1875 -5.28125 C 12.238281 -5.1875 12.285156 -5.101562 12.328125 -5.03125 Z M 11.078125 -5.328125 C 11.078125 -5.367188 11.003906 -5.425781 10.859375 -5.5 L 11 -5.171875 Z M 11.578125 -4.640625 C 11.765625 -4.679688 11.875 -4.71875 11.90625 -4.75 L 12.015625 -4.8125 L 12.078125 -4.890625 L 12.15625 -4.921875 L 12.046875 -5.171875 L 11.90625 -5.171875 L 11.71875 -5.25 C 11.71875 -5.195312 11.742188 -5.125 11.796875 -5.03125 C 11.796875 -5.03125 11.800781 -5.023438 11.8125 -5.015625 C 11.820312 -5.003906 11.828125 -5 11.828125 -5 L 11.828125 -4.921875 C 11.878906 -4.898438 11.878906 -4.863281 11.828125 -4.8125 C 11.828125 -4.789062 11.796875 -4.765625 11.734375 -4.734375 C 11.679688 -4.710938 11.628906 -4.679688 11.578125 -4.640625 Z M 3.953125 -5.171875 L 3.953125 -4.921875 L 4.171875 -4.921875 L 4.171875 -5.171875 Z M 10.640625 -4.453125 L 10.78125 -4.390625 L 11.578125 -4.8125 C 11.453125 -4.769531 11.320312 -4.75 11.1875 -4.75 C 11.132812 -4.695312 11.050781 -4.671875 10.9375 -4.671875 C 10.738281 -4.628906 10.601562 -4.582031 10.53125 -4.53125 L 10.609375 -4.5 L 10.640625 -4.5 Z M 13.40625 -4.8125 C 13.40625 -4.695312 13.382812 -4.625 13.34375 -4.59375 C 13.3125 -4.570312 13.210938 -4.5625 13.046875 -4.5625 L 13.125 -4.421875 L 13.59375 -4.78125 Z M 4.25 -4.53125 C 4.4375 -4.601562 4.554688 -4.660156 4.609375 -4.703125 C 4.503906 -4.753906 4.382812 -4.78125 4.25 -4.78125 Z M 12.796875 -3.921875 L 12.984375 -3.890625 L 13.015625 -4.09375 L 12.828125 -4.09375 Z M 4.671875 -4.03125 L 4.671875 -3.8125 L 5.03125 -3.8125 L 5.03125 -4.03125 Z M 12.109375 -3.953125 L 11.90625 -3.734375 L 11.96875 -3.703125 C 12 -3.703125 12.019531 -3.695312 12.03125 -3.6875 C 12.039062 -3.675781 12.046875 -3.65625 12.046875 -3.625 L 12.375 -3.703125 Z M 12.546875 -3.734375 C 12.472656 -3.640625 12.484375 -3.59375 12.578125 -3.59375 C 12.648438 -3.59375 12.703125 -3.601562 12.734375 -3.625 L 12.6875 -3.671875 C 12.644531 -3.671875 12.597656 -3.691406 12.546875 -3.734375 Z M 12.9375 -3.453125 C 12.9375 -3.429688 12.898438 -3.421875 12.828125 -3.421875 L 12.796875 -3.421875 L 12.65625 -3.203125 L 12.65625 -3.15625 L 12.6875 -3.15625 L 12.828125 -3.375 C 12.929688 -3.40625 13.03125 -3.40625 13.125 -3.375 L 13.15625 -3.421875 Z M 13.59375 -3.421875 C 13.519531 -3.367188 13.457031 -3.304688 13.40625 -3.234375 L 13.375 -3.234375 L 13.40625 -3.203125 C 13.457031 -3.296875 13.519531 -3.351562 13.59375 -3.375 L 13.625 -3.375 Z M 11.21875 -2.765625 C 11.269531 -2.785156 11.316406 -2.832031 11.359375 -2.90625 L 11 -2.84375 L 10.9375 -2.84375 L 10.78125 -2.796875 C 10.882812 -2.734375 10.882812 -2.648438 10.78125 -2.546875 C 10.945312 -2.546875 11.046875 -2.582031 11.078125 -2.65625 C 11.148438 -2.707031 11.195312 -2.742188 11.21875 -2.765625 C 11.238281 -2.785156 11.238281 -2.785156 11.21875 -2.765625 Z M 11.21875 -2.765625 "/></g></g><g style="fill:rgb(100%,100%,100%);fill-opacity:1;"><g transform="translate(76.929957, 197.333365)"><path style="stroke:none;" d="M 19.875 -0.71875 C 19.875 -0.53125 19.804688 -0.363281 19.671875 -0.21875 C 19.546875 -0.0703125 19.375 0 19.15625 0 L 13.734375 0 C 13.304688 0 13.066406 -0.210938 13.015625 -0.640625 L 12.65625 -5.03125 L 7.21875 -3.953125 L 6.4375 -0.640625 C 6.34375 -0.285156 6.101562 -0.109375 5.71875 -0.109375 L 0.390625 -0.21875 C 0.148438 -0.21875 -0.03125 -0.304688 -0.15625 -0.484375 C -0.289062 -0.660156 -0.332031 -0.882812 -0.28125 -1.15625 C 0.3125 -3.40625 1.132812 -6.234375 2.1875 -9.640625 C 2.738281 -11.429688 3.472656 -13.476562 4.390625 -15.78125 C 5.222656 -17.914062 6.347656 -20.632812 7.765625 -23.9375 C 7.859375 -24.15625 8.039062 -24.300781 8.3125 -24.375 L 9.0625 -24.515625 C 9.78125 -24.660156 10.332031 -24.757812 10.71875 -24.8125 C 10.925781 -24.851562 11.285156 -24.875 11.796875 -24.875 C 12.242188 -24.875 12.578125 -24.863281 12.796875 -24.84375 C 13.953125 -24.75 14.875 -23.921875 15.5625 -22.359375 C 15.78125 -21.785156 16.035156 -20.957031 16.328125 -19.875 C 16.640625 -18.582031 16.925781 -17.265625 17.1875 -15.921875 L 19.875 -0.859375 Z M 8.625 -23.296875 L 8.625 -23.515625 L 8.484375 -23.515625 L 8.484375 -23.296875 Z M 12.984375 -22.359375 L 12.984375 -22.65625 L 12.875 -22.65625 L 12.875 -22.359375 Z M 12.6875 -21.75 C 12.738281 -21.84375 12.765625 -21.941406 12.765625 -22.046875 C 12.640625 -22.046875 12.578125 -22.054688 12.578125 -22.078125 L 12.578125 -21.859375 Z M 8.515625 -21.890625 L 8.515625 -21.421875 C 8.515625 -21.523438 8.578125 -21.671875 8.703125 -21.859375 L 8.59375 -21.859375 Z M 13.265625 -21.78125 C 13.316406 -21.832031 13.351562 -21.859375 13.375 -21.859375 L 12.984375 -21.890625 L 12.984375 -21.75 C 13.003906 -21.726562 13.015625 -21.691406 13.015625 -21.640625 L 13.15625 -21.640625 C 13.15625 -21.660156 13.191406 -21.707031 13.265625 -21.78125 Z M 12.984375 -21.640625 L 12.984375 -21.71875 L 12.90625 -21.859375 L 12.90625 -21.75 Z M 13.65625 -21.46875 C 13.5625 -21.46875 13.476562 -21.382812 13.40625 -21.21875 L 13.484375 -21.140625 L 13.953125 -21.140625 L 14.09375 -21.21875 C 13.96875 -21.28125 13.90625 -21.347656 13.90625 -21.421875 L 13.984375 -21.53125 C 13.835938 -21.488281 13.726562 -21.46875 13.65625 -21.46875 Z M 13.546875 -20.5 C 13.453125 -20.5 13.40625 -20.445312 13.40625 -20.34375 C 13.457031 -20.300781 13.519531 -20.28125 13.59375 -20.28125 C 13.613281 -20.28125 13.671875 -20.253906 13.765625 -20.203125 C 13.816406 -20.253906 13.84375 -20.289062 13.84375 -20.3125 L 13.875 -20.390625 C 13.757812 -20.460938 13.648438 -20.5 13.546875 -20.5 Z M 10.640625 -20.171875 L 10.671875 -20.28125 L 10.640625 -20.28125 L 10.5625 -20.203125 Z M 11.03125 -19.8125 L 11.21875 -19.8125 C 11.238281 -19.789062 11.257812 -19.785156 11.28125 -19.796875 C 11.3125 -19.804688 11.335938 -19.8125 11.359375 -19.8125 C 11.359375 -19.90625 11.335938 -19.976562 11.296875 -20.03125 C 11.265625 -20.03125 11.238281 -20.019531 11.21875 -20 C 11.195312 -19.988281 11.171875 -19.984375 11.140625 -19.984375 L 11 -19.984375 Z M 14.171875 -19.34375 C 14.171875 -19.320312 14.109375 -19.285156 13.984375 -19.234375 C 13.929688 -19.234375 13.90625 -19.195312 13.90625 -19.125 C 13.90625 -19.101562 13.929688 -19.066406 13.984375 -19.015625 L 14.203125 -19.015625 C 14.296875 -19.066406 14.34375 -19.113281 14.34375 -19.15625 C 14.34375 -19.28125 14.285156 -19.34375 14.171875 -19.34375 Z M 6.25 -17.9375 C 6.28125 -17.988281 6.253906 -17.976562 6.171875 -17.90625 C 6.085938 -17.832031 6.046875 -17.785156 6.046875 -17.765625 C 6.046875 -17.691406 6.070312 -17.601562 6.125 -17.5 C 6.1875 -17.40625 6.226562 -17.359375 6.25 -17.359375 C 6.28125 -17.429688 6.296875 -17.53125 6.296875 -17.65625 C 6.296875 -17.800781 6.28125 -17.894531 6.25 -17.9375 Z M 8.734375 -17.40625 C 8.734375 -17.40625 8.738281 -17.410156 8.75 -17.421875 C 8.757812 -17.429688 8.78125 -17.4375 8.8125 -17.4375 C 8.882812 -17.414062 8.929688 -17.425781 8.953125 -17.46875 L 8.765625 -17.546875 C 8.742188 -17.546875 8.734375 -17.519531 8.734375 -17.46875 Z M 6.21875 -16.46875 L 6.359375 -16.46875 L 6.359375 -16.890625 L 6.21875 -16.859375 Z M 10.421875 -16.71875 C 10.234375 -16.71875 10.09375 -16.632812 10 -16.46875 C 10.039062 -16.300781 10.097656 -16.203125 10.171875 -16.171875 C 10.242188 -16.148438 10.351562 -16.175781 10.5 -16.25 L 10.609375 -16.53125 L 10.5625 -16.609375 C 10.5625 -16.628906 10.539062 -16.664062 10.5 -16.71875 Z M 14.3125 -16.609375 L 14.5625 -16.609375 L 14.5625 -16.6875 L 14.3125 -16.6875 Z M 14.703125 -16.03125 C 14.703125 -16.15625 14.628906 -16.21875 14.484375 -16.21875 L 14.453125 -16.109375 L 14.484375 -16.03125 Z M 11.578125 -12.078125 C 11.484375 -12.847656 11.398438 -13.425781 11.328125 -13.8125 C 11.128906 -14.8125 10.972656 -15.566406 10.859375 -16.078125 L 9.09375 -10.28125 L 11.796875 -10.359375 Z M 10.03125 -15.5625 L 10.109375 -15.53125 L 10.203125 -15.8125 L 10.140625 -15.859375 Z M 13.515625 -15.5625 L 13.59375 -15.609375 L 13.515625 -15.671875 L 13.40625 -15.640625 Z M 9.03125 -13.484375 C 9.09375 -13.523438 9.164062 -13.597656 9.25 -13.703125 C 9.34375 -13.816406 9.398438 -13.910156 9.421875 -13.984375 L 9.484375 -14.265625 L 9.84375 -15.03125 L 9.671875 -15.09375 L 9.484375 -14.953125 C 9.390625 -14.859375 9.332031 -14.8125 9.3125 -14.8125 C 9.1875 -14.351562 9.125 -14.140625 9.125 -14.171875 C 9.0625 -13.992188 9.015625 -13.90625 8.984375 -13.90625 C 8.984375 -13.863281 8.945312 -13.816406 8.875 -13.765625 C 8.832031 -13.722656 8.796875 -13.640625 8.765625 -13.515625 L 8.515625 -12.734375 L 8.375 -12.21875 C 8.300781 -12.007812 8.191406 -11.820312 8.046875 -11.65625 C 7.910156 -11.476562 7.820312 -11.328125 7.78125 -11.203125 C 7.75 -11.085938 7.734375 -11.019531 7.734375 -11 C 7.679688 -10.90625 7.65625 -10.796875 7.65625 -10.671875 C 7.632812 -10.535156 7.5625 -10.367188 7.4375 -10.171875 C 7.34375 -9.984375 7.285156 -9.84375 7.265625 -9.75 C 7.265625 -9.570312 7.285156 -9.484375 7.328125 -9.484375 C 7.398438 -9.460938 7.460938 -9.460938 7.515625 -9.484375 C 7.515625 -9.484375 7.550781 -9.519531 7.625 -9.59375 C 7.71875 -9.8125 7.789062 -10.015625 7.84375 -10.203125 C 7.863281 -10.421875 7.945312 -10.613281 8.09375 -10.78125 C 8.09375 -10.851562 8.164062 -10.960938 8.3125 -11.109375 L 8.453125 -11.5 C 8.492188 -11.570312 8.5625 -11.765625 8.65625 -12.078125 C 8.757812 -12.390625 8.882812 -12.710938 9.03125 -13.046875 Z M 13.984375 -14.3125 C 13.984375 -14.3125 13.988281 -14.316406 14 -14.328125 C 14.007812 -14.335938 14.015625 -14.34375 14.015625 -14.34375 L 13.765625 -14.375 L 13.765625 -14.234375 L 13.984375 -14.234375 Z M 14.703125 -13.984375 L 14.484375 -14.0625 L 14.484375 -13.984375 L 14.703125 -13.90625 Z M 12.984375 -13.8125 C 13.003906 -13.757812 13.035156 -13.734375 13.078125 -13.734375 C 13.128906 -13.734375 13.15625 -13.757812 13.15625 -13.8125 Z M 14.84375 -12.546875 C 14.96875 -12.546875 15.03125 -12.59375 15.03125 -12.6875 Z M 12.546875 -12.4375 C 12.546875 -12.457031 12.519531 -12.492188 12.46875 -12.546875 L 12.328125 -12.578125 L 12.328125 -12.4375 Z M 13.84375 -12.078125 C 13.820312 -12.273438 13.675781 -12.394531 13.40625 -12.4375 C 13.332031 -12.414062 13.296875 -12.34375 13.296875 -12.21875 L 13.515625 -12.21875 C 13.398438 -12.144531 13.390625 -12.0625 13.484375 -11.96875 L 13.8125 -11.96875 L 13.8125 -12.078125 Z M 14.78125 -12.296875 C 14.925781 -12.296875 15 -12.320312 15 -12.375 C 14.96875 -12.375 14.945312 -12.378906 14.9375 -12.390625 C 14.925781 -12.398438 14.921875 -12.414062 14.921875 -12.4375 L 14.84375 -12.4375 C 14.800781 -12.4375 14.78125 -12.414062 14.78125 -12.375 Z M 14.3125 -12.296875 C 14.351562 -12.242188 14.390625 -12.21875 14.421875 -12.21875 L 14.484375 -12.328125 C 14.484375 -12.359375 14.410156 -12.375 14.265625 -12.375 Z M 14.78125 -11.90625 C 14.875 -11.851562 14.945312 -11.828125 15 -11.828125 C 15.113281 -11.828125 15.234375 -11.863281 15.359375 -11.9375 C 15.253906 -12.03125 15.15625 -12.078125 15.0625 -12.078125 L 14.78125 -12.078125 Z M 13.8125 -11.46875 C 13.90625 -11.46875 13.960938 -11.457031 13.984375 -11.4375 L 14.203125 -11.4375 L 14.203125 -11.609375 L 14.09375 -11.65625 C 14.070312 -11.675781 14.035156 -11.6875 13.984375 -11.6875 C 13.867188 -11.632812 13.8125 -11.5625 13.8125 -11.46875 Z M 12.375 -11.578125 L 12.375 -11.5 L 12.65625 -11.5 L 12.65625 -11.578125 Z M 15.53125 -11.4375 C 15.507812 -11.53125 15.472656 -11.578125 15.421875 -11.578125 L 15.0625 -11.578125 C 14.945312 -11.484375 14.851562 -11.414062 14.78125 -11.375 C 14.707031 -11.34375 14.671875 -11.316406 14.671875 -11.296875 C 14.671875 -11.191406 14.78125 -10.972656 15 -10.640625 L 15.5 -10.640625 L 15.640625 -10.671875 C 15.566406 -10.796875 15.484375 -10.859375 15.390625 -10.859375 C 15.296875 -10.859375 15.175781 -10.929688 15.03125 -11.078125 C 15.195312 -11.117188 15.289062 -11.164062 15.3125 -11.21875 C 15.34375 -11.289062 15.414062 -11.363281 15.53125 -11.4375 Z M 6.765625 -11.46875 L 6.6875 -11.140625 C 6.6875 -11.046875 6.722656 -10.976562 6.796875 -10.9375 C 6.867188 -11.050781 6.90625 -11.144531 6.90625 -11.21875 L 6.90625 -11.46875 Z M 13.875 -11.296875 L 13.84375 -11.359375 L 13.59375 -11.359375 L 13.59375 -11.21875 L 13.765625 -11.078125 L 13.765625 -11.109375 L 13.84375 -11.140625 L 13.90625 -11.140625 Z M 14.3125 -11.109375 C 14.3125 -11.109375 14.300781 -11.113281 14.28125 -11.125 C 14.269531 -11.132812 14.265625 -11.140625 14.265625 -11.140625 L 14.203125 -11.140625 L 14.265625 -10.71875 C 14.335938 -10.8125 14.390625 -10.929688 14.421875 -11.078125 Z M 13.453125 -10.9375 C 13.398438 -10.957031 13.34375 -10.960938 13.28125 -10.953125 C 13.21875 -10.941406 13.175781 -10.9375 13.15625 -10.9375 L 13.265625 -10.75 C 13.316406 -10.769531 13.390625 -10.78125 13.484375 -10.78125 L 13.734375 -10.75 C 13.785156 -10.75 13.835938 -10.765625 13.890625 -10.796875 C 13.953125 -10.835938 13.984375 -10.882812 13.984375 -10.9375 Z M 13.09375 -10.53125 L 13.046875 -10.421875 L 13.125 -10.390625 L 13.15625 -10.53125 Z M 13.59375 -10.03125 C 13.613281 -10.050781 13.625 -10.085938 13.625 -10.140625 L 13.40625 -10.171875 L 13.34375 -10.109375 L 13.296875 -10.03125 L 13.546875 -9.953125 C 13.546875 -10.003906 13.5625 -10.03125 13.59375 -10.03125 Z M 13.015625 -10.03125 C 13.109375 -10.03125 13.132812 -10.054688 13.09375 -10.109375 Z M 15.03125 -9.640625 C 15.03125 -9.660156 14.992188 -9.707031 14.921875 -9.78125 L 14.8125 -9.75 C 14.789062 -9.75 14.78125 -9.734375 14.78125 -9.703125 L 15 -9.640625 Z M 14.703125 -9.125 C 14.660156 -9.175781 14.640625 -9.25 14.640625 -9.34375 C 14.585938 -9.4375 14.5625 -9.507812 14.5625 -9.5625 C 14.34375 -9.707031 14.148438 -9.769531 13.984375 -9.75 C 13.984375 -9.695312 14.019531 -9.671875 14.09375 -9.671875 C 14.1875 -9.648438 14.269531 -9.539062 14.34375 -9.34375 L 14.34375 -9.125 Z M 12.796875 -9.484375 L 12.796875 -9.34375 L 12.90625 -9.34375 L 12.90625 -9.484375 Z M 16.171875 -9.0625 L 16.171875 -9.09375 L 15.96875 -9.125 L 15.96875 -9.0625 Z M 13.59375 -8.875 L 13.734375 -8.875 L 13.734375 -9.0625 L 13.59375 -9.0625 Z M 12.796875 -8.734375 L 12.796875 -8.8125 L 12.6875 -8.8125 L 12.6875 -8.734375 Z M 11.4375 -8.625 L 11.4375 -8.5625 L 11.609375 -8.5625 L 11.609375 -8.625 Z M 12.375 -8.046875 C 12.394531 -8.078125 12.40625 -8.140625 12.40625 -8.234375 C 12.351562 -8.234375 12.269531 -8.195312 12.15625 -8.125 L 12.296875 -8.125 Z M 13.546875 -7.984375 C 13.429688 -7.859375 13.375 -7.796875 13.375 -7.796875 C 13.519531 -7.722656 13.640625 -7.6875 13.734375 -7.6875 C 13.898438 -7.8125 13.984375 -7.910156 13.984375 -7.984375 C 13.984375 -8.003906 13.945312 -8.050781 13.875 -8.125 C 13.800781 -8.125 13.765625 -8.148438 13.765625 -8.203125 Z M 14.3125 -6.96875 L 14.484375 -6.96875 L 14.484375 -7.046875 L 14.3125 -7.046875 Z M 13.84375 -6.96875 C 13.84375 -6.851562 13.914062 -6.757812 14.0625 -6.6875 L 14.0625 -6.96875 Z M 15.25 -6.71875 C 15.25 -6.675781 15.273438 -6.613281 15.328125 -6.53125 C 15.390625 -6.445312 15.46875 -6.40625 15.5625 -6.40625 C 15.6875 -6.40625 15.757812 -6.414062 15.78125 -6.4375 C 15.78125 -6.4375 15.851562 -6.445312 16 -6.46875 C 15.976562 -6.519531 15.941406 -6.546875 15.890625 -6.546875 L 15.75 -6.65625 C 15.726562 -6.675781 15.71875 -6.78125 15.71875 -6.96875 C 15.6875 -6.875 15.625 -6.828125 15.53125 -6.828125 Z M 7.1875 -6.6875 L 7.1875 -6.5 L 7.59375 -6.5 L 7.59375 -6.6875 Z M 6.71875 -6 C 6.675781 -6.09375 6.65625 -6.164062 6.65625 -6.21875 C 6.414062 -6.34375 6.269531 -6.40625 6.21875 -6.40625 C 6.101562 -6.40625 6.015625 -6.367188 5.953125 -6.296875 C 5.890625 -6.222656 5.859375 -6.160156 5.859375 -6.109375 C 5.859375 -6.035156 5.90625 -5.957031 6 -5.875 C 6.09375 -5.789062 6.203125 -5.75 6.328125 -5.75 C 6.378906 -5.75 6.414062 -5.757812 6.4375 -5.78125 L 6.796875 -5.78125 Z M 12.796875 -6.40625 L 12.796875 -6.25 L 12.90625 -6.25 L 12.90625 -6.40625 Z M 16.859375 -6.296875 L 16.859375 -6.359375 L 16.71875 -6.359375 L 16.71875 -6.296875 Z M 13.1875 -6.25 C 13.289062 -6.226562 13.34375 -6.191406 13.34375 -6.140625 L 13.703125 -6.140625 L 13.703125 -6.25 Z M 11.4375 -6.21875 L 11.328125 -6.1875 L 11.359375 -6.109375 L 11.46875 -6.140625 Z M 17.4375 -1.296875 C 17.507812 -1.296875 17.566406 -1.316406 17.609375 -1.359375 L 17.46875 -2.234375 L 17.328125 -3.09375 L 17.1875 -3.265625 L 17.109375 -3.453125 C 17.109375 -3.523438 17.171875 -3.609375 17.296875 -3.703125 C 17.078125 -3.828125 16.976562 -3.9375 17 -4.03125 C 17.050781 -4.175781 17.078125 -4.269531 17.078125 -4.3125 C 17.078125 -4.457031 17.03125 -4.613281 16.9375 -4.78125 C 16.863281 -4.90625 16.828125 -4.988281 16.828125 -5.03125 C 16.828125 -5.125 16.863281 -5.171875 16.9375 -5.171875 C 16.957031 -5.171875 16.96875 -5.207031 16.96875 -5.28125 C 16.96875 -5.375 16.929688 -5.492188 16.859375 -5.640625 L 16.609375 -5.421875 L 16.359375 -5.25 L 16.25 -5.328125 L 16.25 -5.6875 C 16.25 -5.800781 16.359375 -5.859375 16.578125 -5.859375 L 16.71875 -5.75 L 16.71875 -6.046875 C 16.644531 -6.085938 16.546875 -6.125 16.421875 -6.15625 C 16.304688 -6.195312 16.222656 -6.21875 16.171875 -6.21875 C 16.054688 -6.21875 15.914062 -6.175781 15.75 -6.09375 C 15.582031 -6.007812 15.5 -5.921875 15.5 -5.828125 C 15.5 -5.796875 15.519531 -5.757812 15.5625 -5.71875 L 15.71875 -5.609375 C 15.644531 -5.535156 15.644531 -5.453125 15.71875 -5.359375 L 15.859375 -5.25 C 15.878906 -5.25 15.894531 -5.234375 15.90625 -5.203125 C 15.914062 -5.179688 15.921875 -5.171875 15.921875 -5.171875 C 15.847656 -5.128906 15.765625 -5.109375 15.671875 -5.109375 C 15.460938 -5.109375 15.359375 -5.046875 15.359375 -4.921875 C 15.304688 -4.753906 15.28125 -4.671875 15.28125 -4.671875 C 15.332031 -4.691406 15.382812 -4.691406 15.4375 -4.671875 C 15.5 -4.648438 15.519531 -4.613281 15.5 -4.5625 C 15.5 -4.519531 15.472656 -4.5 15.421875 -4.5 C 15.398438 -4.5 15.390625 -4.484375 15.390625 -4.453125 C 15.390625 -4.410156 15.378906 -4.375 15.359375 -4.34375 L 15.28125 -4.203125 L 15.28125 -3.890625 C 15.300781 -3.859375 15.425781 -3.796875 15.65625 -3.703125 C 15.882812 -3.609375 15.890625 -3.515625 15.671875 -3.421875 C 15.742188 -3.390625 15.890625 -3.375 16.109375 -3.375 C 16.179688 -3.375 16.238281 -3.390625 16.28125 -3.421875 L 16.5 -3.421875 L 16.5 -2.90625 L 16.46875 -2.90625 L 16.46875 -2.875 L 16.4375 -2.875 L 16.53125 -2.765625 C 16.601562 -2.691406 16.640625 -2.65625 16.640625 -2.65625 C 16.640625 -2.613281 16.664062 -2.59375 16.71875 -2.59375 C 16.71875 -2.59375 16.753906 -2.554688 16.828125 -2.484375 L 16.859375 -2.15625 C 16.910156 -2.039062 16.992188 -1.945312 17.109375 -1.875 C 17.109375 -1.820312 17.097656 -1.785156 17.078125 -1.765625 L 17.078125 -1.6875 C 17.078125 -1.644531 17.125 -1.566406 17.21875 -1.453125 C 17.3125 -1.347656 17.382812 -1.296875 17.4375 -1.296875 Z M 3.890625 -5.609375 C 3.953125 -5.679688 3.914062 -5.726562 3.78125 -5.75 L 3.78125 -5.6875 Z M 5.421875 -5.03125 C 5.472656 -5.082031 5.460938 -5.144531 5.390625 -5.21875 C 5.347656 -5.164062 5.328125 -5.101562 5.328125 -5.03125 C 5.328125 -5.007812 5.347656 -5 5.390625 -5 C 5.410156 -5 5.421875 -5.007812 5.421875 -5.03125 Z M 15 -4.671875 C 15.019531 -4.671875 15.03125 -4.707031 15.03125 -4.78125 L 14.78125 -4.78125 C 14.78125 -4.707031 14.789062 -4.671875 14.8125 -4.671875 C 14.8125 -4.671875 14.847656 -4.632812 14.921875 -4.5625 C 14.921875 -4.59375 14.925781 -4.613281 14.9375 -4.625 C 14.945312 -4.632812 14.96875 -4.648438 15 -4.671875 Z M 4.5625 -4.390625 L 4.640625 -4.421875 L 4.640625 -4.609375 C 4.640625 -4.671875 4.566406 -4.703125 4.421875 -4.703125 L 4.34375 -4.671875 C 4.34375 -4.671875 4.335938 -4.664062 4.328125 -4.65625 C 4.316406 -4.644531 4.3125 -4.640625 4.3125 -4.640625 L 4.3125 -4.5 Z M 13.296875 -4.671875 L 13.296875 -4.53125 L 13.546875 -4.53125 L 13.546875 -4.671875 Z M 14.203125 -4.25 C 14.203125 -4.3125 14.171875 -4.347656 14.109375 -4.359375 C 14.046875 -4.378906 14.003906 -4.390625 13.984375 -4.390625 L 13.984375 -4.25 Z M 4.421875 -3.8125 C 4.421875 -3.832031 4.4375 -3.851562 4.46875 -3.875 C 4.507812 -3.90625 4.539062 -3.929688 4.5625 -3.953125 L 4.8125 -4.03125 L 4.8125 -4.171875 C 4.769531 -4.222656 4.734375 -4.25 4.703125 -4.25 L 4.5625 -4.34375 C 4.46875 -4.132812 4.273438 -4.03125 3.984375 -4.03125 C 3.984375 -3.976562 4.019531 -3.914062 4.09375 -3.84375 C 4.164062 -3.769531 4.238281 -3.734375 4.3125 -3.734375 C 4.332031 -3.734375 4.367188 -3.757812 4.421875 -3.8125 Z M 13.765625 -3.984375 C 13.671875 -4.015625 13.613281 -4.039062 13.59375 -4.0625 L 13.625 -3.8125 L 13.984375 -3.890625 Z M 5.859375 -3.09375 C 5.910156 -3.113281 5.9375 -3.160156 5.9375 -3.234375 L 5.859375 -3.3125 C 5.804688 -3.3125 5.78125 -3.296875 5.78125 -3.265625 L 5.71875 -3.265625 L 5.578125 -3.234375 L 5.71875 -3.125 Z M 4.34375 -2.875 C 4.320312 -2.875 4.285156 -2.890625 4.234375 -2.921875 C 4.191406 -2.960938 4.144531 -2.992188 4.09375 -3.015625 C 3.976562 -3.015625 3.921875 -2.96875 3.921875 -2.875 C 3.941406 -2.851562 4.015625 -2.851562 4.140625 -2.875 Z M 4.78125 -2.734375 C 4.851562 -2.804688 4.898438 -2.84375 4.921875 -2.84375 C 4.921875 -2.9375 4.875 -2.992188 4.78125 -3.015625 C 4.632812 -2.941406 4.5625 -2.894531 4.5625 -2.875 Z M 14.421875 -2.734375 C 14.421875 -2.773438 14.367188 -2.847656 14.265625 -2.953125 L 14.09375 -2.84375 L 14.015625 -2.734375 Z M 14.78125 -1.046875 C 14.78125 -1.046875 14.785156 -1.050781 14.796875 -1.0625 C 14.804688 -1.070312 14.8125 -1.078125 14.8125 -1.078125 C 14.738281 -1.222656 14.703125 -1.34375 14.703125 -1.4375 L 14.34375 -1.4375 C 14.394531 -1.34375 14.457031 -1.253906 14.53125 -1.171875 C 14.601562 -1.085938 14.671875 -1.019531 14.734375 -0.96875 Z M 14.78125 -1.046875 "/></g></g><g style="fill:rgb(100%,100%,100%);fill-opacity:1;"><g transform="translate(98.573686, 197.333365)"><path style="stroke:none;" d="M 20.859375 -0.71875 C 20.859375 -0.53125 20.785156 -0.363281 20.640625 -0.21875 C 20.492188 -0.0703125 20.328125 0 20.140625 0 L 14.921875 -0.109375 C 14.734375 -0.109375 14.5625 -0.1875 14.40625 -0.34375 C 14.25 -0.5 14.179688 -0.671875 14.203125 -0.859375 L 14.671875 -8.5625 L 12.765625 -4.609375 C 12.503906 -4.054688 12.226562 -3.582031 11.9375 -3.1875 C 11.644531 -2.789062 11.320312 -2.507812 10.96875 -2.34375 C 10.65625 -2.144531 10.28125 -2.046875 9.84375 -2.046875 C 9.394531 -2.046875 8.992188 -2.179688 8.640625 -2.453125 C 8.296875 -2.734375 8.050781 -3.140625 7.90625 -3.671875 L 6.546875 -7.84375 L 6.40625 -8.34375 L 6.296875 -4.75 L 6.21875 -4.703125 L 6.21875 -4.53125 L 6.296875 -4.53125 L 6.1875 -0.828125 C 6.1875 -0.585938 6.078125 -0.382812 5.859375 -0.21875 C 5.804688 -0.238281 5.710938 -0.25 5.578125 -0.25 L 4.609375 -0.25 L 4.390625 -0.28125 L 4.171875 -0.359375 C 4.097656 -0.359375 4.019531 -0.332031 3.9375 -0.28125 C 3.851562 -0.238281 3.800781 -0.179688 3.78125 -0.109375 L 5.46875 -0.109375 L 0.390625 0 C 0.179688 0 0.00390625 -0.0703125 -0.140625 -0.21875 C -0.285156 -0.363281 -0.359375 -0.539062 -0.359375 -0.75 L 0.21875 -12.40625 L 0.578125 -19.625 C 0.617188 -19.894531 0.617188 -20.085938 0.578125 -20.203125 L 0.75 -23.90625 C 0.78125 -24.363281 1.019531 -24.601562 1.46875 -24.625 L 4.3125 -24.734375 L 4.34375 -24.65625 C 4.375 -24.632812 4.410156 -24.625 4.453125 -24.625 L 4.34375 -24.734375 L 4.53125 -24.734375 C 5.46875 -24.753906 6.234375 -24.503906 6.828125 -23.984375 C 6.640625 -23.953125 6.351562 -23.9375 5.96875 -23.9375 C 5.65625 -23.9375 5.34375 -23.988281 5.03125 -24.09375 C 4.957031 -24.09375 4.523438 -24.148438 3.734375 -24.265625 C 3.585938 -24.097656 3.445312 -24.015625 3.3125 -24.015625 L 2.796875 -24.09375 C 2.609375 -24.132812 2.46875 -24.15625 2.375 -24.15625 C 2.175781 -24.15625 2.007812 -24.082031 1.875 -23.9375 C 1.726562 -24.007812 1.617188 -24.046875 1.546875 -24.046875 C 1.492188 -24.046875 1.445312 -24.035156 1.40625 -24.015625 C 1.375 -23.992188 1.359375 -23.96875 1.359375 -23.9375 L 1.296875 -23.90625 C 1.296875 -23.90625 1.222656 -24.015625 1.078125 -24.234375 L 1 -23.734375 C 1.195312 -23.753906 1.460938 -23.765625 1.796875 -23.765625 C 2.179688 -23.765625 2.515625 -23.738281 2.796875 -23.6875 L 3.15625 -23.65625 C 3.28125 -23.65625 3.554688 -23.679688 3.984375 -23.734375 L 4.140625 -23.796875 L 4.28125 -23.796875 L 4.53125 -23.84375 L 4.671875 -23.765625 C 5.441406 -23.691406 6.269531 -23.65625 7.15625 -23.65625 C 7.414062 -23.34375 7.644531 -22.9375 7.84375 -22.4375 L 7.84375 -22.40625 L 10.421875 -13.40625 L 14.734375 -23.65625 C 15.835938 -23.65625 17.097656 -23.691406 18.515625 -23.765625 L 18.546875 -24.09375 C 17.585938 -23.988281 16.488281 -23.9375 15.25 -23.9375 L 14.84375 -23.9375 L 15.0625 -24.375 L 15.09375 -24.515625 L 15.140625 -24.484375 L 15.25 -24.40625 C 15.363281 -24.457031 15.421875 -24.519531 15.421875 -24.59375 L 15.453125 -24.65625 L 15.453125 -24.765625 C 15.554688 -24.816406 15.65625 -24.84375 15.75 -24.84375 L 17.296875 -24.84375 C 18.328125 -24.84375 19.101562 -24.578125 19.625 -24.046875 C 20.375 -23.304688 20.75 -22.382812 20.75 -21.28125 Z M 5.5 -24.453125 L 5.53125 -24.34375 L 5.75 -24.34375 L 5.828125 -24.484375 C 5.828125 -24.554688 5.78125 -24.59375 5.6875 -24.59375 C 5.632812 -24.539062 5.582031 -24.515625 5.53125 -24.515625 Z M 18.375 -24.234375 C 18.0625 -24.304688 17.820312 -24.378906 17.65625 -24.453125 L 17.40625 -24.515625 C 17.445312 -24.441406 17.457031 -24.394531 17.4375 -24.375 Z M 16.25 -24.265625 C 16.195312 -24.316406 16.148438 -24.34375 16.109375 -24.34375 C 16.035156 -24.34375 15.960938 -24.316406 15.890625 -24.265625 C 15.816406 -24.222656 15.769531 -24.175781 15.75 -24.125 C 15.789062 -24.070312 15.828125 -24.046875 15.859375 -24.046875 C 15.859375 -24.046875 15.863281 -24.039062 15.875 -24.03125 C 15.882812 -24.019531 15.890625 -24.015625 15.890625 -24.015625 L 16.25 -24.125 Z M 4.75 -24.34375 C 4.769531 -24.3125 4.78125 -24.3125 4.78125 -24.34375 Z M 1.078125 -23.015625 L 1 -23.078125 L 0.90625 -23.015625 Z M 1 -22.4375 L 1 -22.65625 L 0.859375 -22.4375 Z M 7.734375 -19.921875 C 7.734375 -19.921875 7.6875 -19.875 7.59375 -19.78125 L 7.40625 -19.5625 L 7.6875 -19.5625 C 7.71875 -19.601562 7.734375 -19.660156 7.734375 -19.734375 Z M 6.765625 -19.34375 L 7.015625 -19.34375 L 7.015625 -19.421875 L 6.765625 -19.421875 Z M 17.9375 -19.15625 C 17.863281 -19.207031 17.828125 -19.242188 17.828125 -19.265625 L 17.578125 -19.265625 C 17.578125 -19.191406 17.613281 -19.125 17.6875 -19.0625 L 17.828125 -19.0625 Z M 16.796875 -18.984375 C 16.796875 -18.816406 16.695312 -18.707031 16.5 -18.65625 C 16.550781 -18.613281 16.613281 -18.59375 16.6875 -18.59375 C 16.78125 -18.59375 16.898438 -18.628906 17.046875 -18.703125 L 17.046875 -18.90625 Z M 7.328125 -17.90625 L 7.078125 -18.046875 C 7.078125 -18.023438 7.066406 -18.015625 7.046875 -18.015625 L 7.046875 -17.96875 L 7.015625 -17.9375 L 7.15625 -17.90625 Z M 17.90625 -17.359375 C 17.90625 -17.460938 17.832031 -17.523438 17.6875 -17.546875 L 17.609375 -17.46875 C 17.585938 -17.425781 17.554688 -17.40625 17.515625 -17.40625 C 17.535156 -17.332031 17.601562 -17.316406 17.71875 -17.359375 Z M 1.078125 -13.515625 L 0.96875 -13.625 L 1.078125 -13.40625 Z M 16.71875 -12.9375 L 16.71875 -12.90625 L 16.828125 -12.9375 L 16.9375 -12.9375 C 16.9375 -13.039062 16.875 -13.09375 16.75 -13.09375 L 16.640625 -13.015625 Z M 10.359375 -12.65625 C 10.359375 -12.5625 10.367188 -12.5 10.390625 -12.46875 C 10.410156 -12.445312 10.421875 -12.414062 10.421875 -12.375 L 10.71875 -12.375 L 10.78125 -12.46875 C 10.78125 -12.46875 10.773438 -12.472656 10.765625 -12.484375 C 10.753906 -12.503906 10.75 -12.515625 10.75 -12.515625 L 10.71875 -12.546875 L 10.640625 -12.65625 Z M 15.96875 -11.9375 C 15.84375 -11.882812 15.78125 -11.820312 15.78125 -11.75 C 15.78125 -11.707031 15.789062 -11.6875 15.8125 -11.6875 L 15.859375 -11.65625 C 15.859375 -11.675781 15.878906 -11.6875 15.921875 -11.6875 L 15.96875 -11.6875 Z M 9.921875 -11.578125 L 9.953125 -11.46875 L 10.03125 -11.4375 C 10.101562 -11.4375 10.140625 -11.492188 10.140625 -11.609375 L 9.78125 -11.65625 Z M 1.078125 -11.578125 L 0.96875 -11.578125 L 0.96875 -11.140625 L 1.078125 -11.140625 Z M 12.875 -11.03125 L 12.875 -11.078125 C 12.875 -11.078125 12.878906 -11.082031 12.890625 -11.09375 C 12.898438 -11.101562 12.90625 -11.109375 12.90625 -11.109375 C 12.925781 -11.109375 12.9375 -11.132812 12.9375 -11.1875 C 12.9375 -11.300781 12.84375 -11.359375 12.65625 -11.359375 C 12.5625 -11.359375 12.453125 -11.285156 12.328125 -11.140625 C 12.378906 -11.140625 12.40625 -11.101562 12.40625 -11.03125 C 12.425781 -11.007812 12.507812 -11 12.65625 -11 Z M 10.890625 -10.609375 C 10.960938 -10.609375 11.007812 -10.617188 11.03125 -10.640625 L 11.109375 -10.640625 C 11.179688 -10.710938 11.171875 -10.8125 11.078125 -10.9375 L 10.640625 -10.828125 L 10.5 -10.78125 L 10.609375 -10.71875 Z M 1.078125 -10.890625 L 0.96875 -10.890625 L 0.96875 -10.5625 L 1.078125 -10.5625 Z M 10.25 -10.03125 L 10.421875 -10.03125 L 10.421875 -10.171875 L 10.25 -10.171875 Z M 13.09375 -10.109375 L 12.765625 -10.109375 L 12.765625 -10 L 13.09375 -10 Z M 0.828125 -9.921875 C 0.773438 -9.898438 0.757812 -9.875 0.78125 -9.84375 C 0.8125 -9.820312 0.863281 -9.800781 0.9375 -9.78125 L 0.9375 -10.03125 C 0.9375 -10.007812 0.898438 -9.972656 0.828125 -9.921875 Z M 0.9375 -9.703125 C 0.9375 -9.660156 0.875 -9.613281 0.75 -9.5625 C 0.800781 -9.46875 0.828125 -9.394531 0.828125 -9.34375 C 0.828125 -9.195312 0.816406 -9.101562 0.796875 -9.0625 L 0.796875 -8.921875 C 0.796875 -8.753906 0.851562 -8.632812 0.96875 -8.5625 Z M 10.609375 -8.953125 L 10.71875 -8.953125 L 10.890625 -9.03125 L 10.78125 -9.125 C 10.78125 -9.125 10.757812 -9.148438 10.71875 -9.203125 C 10.664062 -9.148438 10.546875 -9.125 10.359375 -9.125 L 10.46875 -8.921875 Z M 11.96875 -8.765625 C 12.0625 -8.796875 12.109375 -8.847656 12.109375 -8.921875 C 12.109375 -8.941406 12.085938 -8.976562 12.046875 -9.03125 L 12.015625 -9.03125 L 11.96875 -9.0625 L 11.75 -9.0625 C 11.632812 -8.988281 11.578125 -8.925781 11.578125 -8.875 C 11.578125 -8.832031 11.597656 -8.785156 11.640625 -8.734375 C 11.691406 -8.691406 11.742188 -8.671875 11.796875 -8.671875 Z M 11.328125 -7.953125 C 11.367188 -7.921875 11.425781 -7.910156 11.5 -7.921875 C 11.570312 -7.941406 11.65625 -7.953125 11.75 -7.953125 C 11.632812 -8.140625 11.515625 -8.234375 11.390625 -8.234375 C 11.367188 -8.234375 11.265625 -8.171875 11.078125 -8.046875 L 11.1875 -7.953125 Z M 12.65625 -7.875 C 12.707031 -7.925781 12.734375 -7.960938 12.734375 -7.984375 C 12.734375 -8.054688 12.660156 -8.140625 12.515625 -8.234375 C 12.421875 -8.160156 12.328125 -8.066406 12.234375 -7.953125 C 12.148438 -7.847656 12.109375 -7.757812 12.109375 -7.6875 C 12.109375 -7.59375 12.125 -7.535156 12.15625 -7.515625 C 12.195312 -7.441406 12.28125 -7.40625 12.40625 -7.40625 C 12.5 -7.40625 12.554688 -7.441406 12.578125 -7.515625 C 12.578125 -7.585938 12.59375 -7.644531 12.625 -7.6875 C 12.625 -7.738281 12.609375 -7.765625 12.578125 -7.765625 L 12.578125 -7.875 Z M 0.75 -3.5625 L 0.859375 -5.71875 L 1.078125 -8.125 L 0.75 -8.203125 L 0.75 -7.1875 C 0.75 -7.019531 0.679688 -6.863281 0.546875 -6.71875 L 0.359375 -6.578125 C 0.304688 -6.523438 0.28125 -6.535156 0.28125 -6.609375 L 0.359375 -5.140625 L 0.46875 -4.203125 L 0.609375 -3.421875 C 0.660156 -3.078125 0.6875 -2.800781 0.6875 -2.59375 C 0.6875 -2.300781 0.648438 -1.988281 0.578125 -1.65625 C 0.523438 -1.507812 0.5 -1.378906 0.5 -1.265625 L 0.546875 -0.859375 C 0.566406 -0.785156 0.578125 -0.707031 0.578125 -0.625 C 0.578125 -0.539062 0.585938 -0.460938 0.609375 -0.390625 L 0.96875 -0.859375 Z M 11.03125 -7.515625 C 11.03125 -7.535156 11 -7.5625 10.9375 -7.59375 C 10.882812 -7.632812 10.832031 -7.65625 10.78125 -7.65625 L 10.78125 -7.515625 L 10.828125 -7.484375 C 10.898438 -7.484375 10.945312 -7.492188 10.96875 -7.515625 Z M 10.421875 -6.96875 C 10.453125 -6.96875 10.476562 -6.976562 10.5 -7 C 10.519531 -7.03125 10.519531 -7.046875 10.5 -7.046875 C 10.445312 -7.046875 10.421875 -7.035156 10.421875 -7.015625 Z M 17.078125 -5.46875 L 16.96875 -5.53125 C 16.914062 -5.582031 16.867188 -5.609375 16.828125 -5.609375 C 16.734375 -5.609375 16.660156 -5.546875 16.609375 -5.421875 C 16.609375 -5.421875 16.632812 -5.398438 16.6875 -5.359375 C 16.726562 -5.304688 16.785156 -5.28125 16.859375 -5.28125 C 16.878906 -5.28125 16.914062 -5.304688 16.96875 -5.359375 Z M 19.265625 -4.671875 C 19.265625 -4.742188 19.242188 -4.78125 19.203125 -4.78125 C 19.148438 -4.78125 19.085938 -4.742188 19.015625 -4.671875 Z M 10.828125 -4.25 C 10.628906 -4.25 10.457031 -4.296875 10.3125 -4.390625 C 10.21875 -4.429688 10.160156 -4.453125 10.140625 -4.453125 C 10.085938 -4.453125 10.039062 -4.429688 10 -4.390625 C 9.96875 -4.359375 9.953125 -4.332031 9.953125 -4.3125 C 10.171875 -4.21875 10.304688 -4.160156 10.359375 -4.140625 L 10.53125 -4.03125 C 10.582031 -3.976562 10.644531 -3.953125 10.71875 -3.953125 L 10.828125 -4.03125 Z M 11.6875 -3.921875 L 11.578125 -4.0625 C 11.578125 -4.0625 11.53125 -4.109375 11.4375 -4.203125 C 11.363281 -4.179688 11.328125 -4.125 11.328125 -4.03125 C 11.367188 -3.976562 11.421875 -3.941406 11.484375 -3.921875 C 11.546875 -3.898438 11.585938 -3.875 11.609375 -3.84375 Z M 5.53125 -3.890625 C 5.53125 -3.765625 5.628906 -3.703125 5.828125 -3.703125 C 5.921875 -3.703125 5.96875 -3.765625 5.96875 -3.890625 C 5.96875 -3.984375 5.90625 -4.03125 5.78125 -4.03125 C 5.613281 -4.03125 5.53125 -3.984375 5.53125 -3.890625 Z M 4.34375 -3.59375 L 4.3125 -3.625 L 4.140625 -3.625 C 4.140625 -3.625 4.128906 -3.617188 4.109375 -3.609375 C 4.097656 -3.597656 4.09375 -3.59375 4.09375 -3.59375 L 4.09375 -3.515625 C 4.09375 -3.453125 4.144531 -3.421875 4.25 -3.421875 C 4.3125 -3.460938 4.34375 -3.492188 4.34375 -3.515625 Z M 10.71875 -3.09375 C 10.644531 -3.09375 10.609375 -3.054688 10.609375 -2.984375 L 10.71875 -2.953125 Z M 10.71875 -2.625 L 10.640625 -2.625 L 10.640625 -2.484375 L 10.71875 -2.4375 Z M 3.703125 -2.4375 C 3.703125 -2.539062 3.664062 -2.59375 3.59375 -2.59375 C 3.539062 -2.59375 3.484375 -2.578125 3.421875 -2.546875 C 3.367188 -2.523438 3.332031 -2.503906 3.3125 -2.484375 C 3.40625 -2.390625 3.523438 -2.34375 3.671875 -2.34375 C 3.671875 -2.363281 3.679688 -2.375 3.703125 -2.375 Z M 5.890625 -1.296875 L 5.890625 -1.4375 L 6.078125 -1.578125 L 5.96875 -1.625 L 5.859375 -1.65625 C 5.742188 -1.65625 5.6875 -1.628906 5.6875 -1.578125 L 5.6875 -1.515625 C 5.78125 -1.410156 5.8125 -1.328125 5.78125 -1.265625 C 5.757812 -1.191406 5.832031 -1.15625 6 -1.15625 L 6.078125 -1.15625 L 6.078125 -1.1875 C 6.054688 -1.207031 6.019531 -1.21875 5.96875 -1.21875 Z M 5.890625 -1.296875 "/></g></g><g style="fill:rgb(100%,100%,100%);fill-opacity:1;"><g transform="translate(121.152202, 197.333365)"><path style="stroke:none;" d="M 16.359375 -25.0625 C 16.597656 -25.0625 16.789062 -24.988281 16.9375 -24.84375 C 17.082031 -24.695312 17.15625 -24.515625 17.15625 -24.296875 L 17.046875 -20.03125 C 16.992188 -19.570312 16.765625 -19.332031 16.359375 -19.3125 L 6.46875 -18.265625 L 6.21875 -15.28125 L 13.625 -15.671875 L 13.625 -12.15625 L 13.765625 -12.15625 L 13.765625 -15.671875 C 13.960938 -15.671875 14.140625 -15.597656 14.296875 -15.453125 C 14.453125 -15.316406 14.53125 -15.148438 14.53125 -14.953125 L 14.53125 -11.21875 C 14.53125 -10.8125 14.320312 -10.570312 13.90625 -10.5 L 6.046875 -9.453125 L 5.859375 -6.46875 L 15.453125 -6.765625 C 15.671875 -6.765625 15.851562 -6.691406 16 -6.546875 C 16.144531 -6.398438 16.21875 -6.234375 16.21875 -6.046875 L 16.21875 -1.515625 C 16.21875 -1.054688 15.988281 -0.816406 15.53125 -0.796875 L 0.390625 0 C 0.179688 0 0.00390625 -0.0625 -0.140625 -0.1875 C -0.285156 -0.320312 -0.359375 -0.507812 -0.359375 -0.75 C -0.304688 -4.300781 -0.195312 -7.992188 -0.03125 -11.828125 C 0.132812 -15.347656 0.429688 -19.316406 0.859375 -23.734375 C 0.929688 -24.160156 1.171875 -24.375 1.578125 -24.375 Z M 6.109375 -24.265625 L 6.1875 -24.265625 L 6.1875 -24.375 L 6.109375 -24.375 Z M 8.453125 -24.046875 C 8.421875 -24.023438 8.410156 -24.007812 8.421875 -24 C 8.441406 -23.988281 8.472656 -23.984375 8.515625 -23.984375 C 8.472656 -23.984375 8.453125 -24.003906 8.453125 -24.046875 Z M 9.125 -23.4375 C 9.175781 -23.488281 9.203125 -23.535156 9.203125 -23.578125 C 9.203125 -23.679688 9.128906 -23.734375 8.984375 -23.734375 C 8.835938 -23.734375 8.734375 -23.679688 8.671875 -23.578125 L 8.5625 -23.4375 C 8.632812 -23.488281 8.671875 -23.535156 8.671875 -23.578125 L 8.84375 -23.625 C 8.988281 -23.59375 9.0625 -23.53125 9.0625 -23.4375 L 9.0625 -23.296875 C 9.0625 -23.347656 9.082031 -23.394531 9.125 -23.4375 Z M 14.53125 -23.6875 L 14.453125 -23.6875 L 14.453125 -23.578125 L 14.53125 -23.578125 Z M 4.3125 -23.484375 L 5.0625 -23.484375 L 5.0625 -23.578125 L 4.3125 -23.578125 Z M 6.90625 -23.578125 L 6.40625 -23.578125 L 6.40625 -23.546875 L 6.328125 -23.546875 C 6.203125 -23.503906 6.140625 -23.46875 6.140625 -23.4375 L 6.40625 -23.4375 L 6.4375 -23.484375 L 6.90625 -23.484375 Z M 5.71875 -23.4375 L 5.828125 -23.4375 L 5.828125 -23.515625 L 5.71875 -23.515625 Z M 11.6875 -23.4375 L 11.390625 -23.4375 L 11.390625 -23.296875 L 11.6875 -23.296875 Z M 7.40625 -23.296875 C 7.351562 -23.296875 7.328125 -23.238281 7.328125 -23.125 C 7.328125 -23.125 7.378906 -23.171875 7.484375 -23.265625 C 7.554688 -23.335938 7.53125 -23.347656 7.40625 -23.296875 Z M 9.78125 -23.1875 L 9.640625 -23.1875 L 9.640625 -23.125 L 9.78125 -23.125 Z M 3.984375 -22.578125 L 4.03125 -22.4375 L 4.03125 -22.359375 L 4.171875 -22.359375 C 4.171875 -22.390625 4.195312 -22.425781 4.25 -22.46875 C 4.289062 -22.519531 4.3125 -22.546875 4.3125 -22.546875 Z M 8.375 -22.078125 C 8.257812 -22.117188 8.203125 -22.164062 8.203125 -22.21875 L 8.203125 -22.25 L 8.375 -22.4375 L 8.234375 -22.359375 L 8.15625 -22.359375 C 8.132812 -22.359375 8.117188 -22.351562 8.109375 -22.34375 C 8.097656 -22.332031 8.078125 -22.328125 8.046875 -22.328125 L 7.984375 -22.328125 C 7.859375 -22.273438 7.757812 -22.179688 7.6875 -22.046875 L 7.765625 -21.96875 L 8.203125 -21.96875 C 8.222656 -21.96875 8.238281 -21.972656 8.25 -21.984375 C 8.257812 -21.992188 8.265625 -22 8.265625 -22 L 8.3125 -22 Z M 9.59375 -21.96875 L 9.640625 -21.96875 L 9.671875 -21.9375 L 9.703125 -22.046875 L 9.59375 -22.046875 Z M 7.546875 -21.71875 L 7.484375 -21.9375 C 7.285156 -21.863281 7.1875 -21.789062 7.1875 -21.71875 C 7.257812 -21.6875 7.304688 -21.6875 7.328125 -21.71875 Z M 9.125 -21.421875 C 9.125 -21.472656 9.066406 -21.546875 8.953125 -21.640625 L 8.84375 -21.421875 Z M 10.609375 -21.390625 C 10.609375 -21.410156 10.582031 -21.445312 10.53125 -21.5 L 10.46875 -21.578125 C 10.269531 -21.503906 10.171875 -21.429688 10.171875 -21.359375 Z M 8.203125 -21.359375 C 8.054688 -21.429688 7.945312 -21.46875 7.875 -21.46875 C 7.75 -21.46875 7.6875 -21.40625 7.6875 -21.28125 L 7.875 -21.171875 L 7.984375 -21.140625 L 8.015625 -21.140625 C 8.066406 -21.140625 8.09375 -21.175781 8.09375 -21.25 Z M 9.59375 -21.0625 C 9.644531 -21.019531 9.707031 -21.019531 9.78125 -21.0625 C 9.78125 -21.207031 9.734375 -21.289062 9.640625 -21.3125 L 9.484375 -21.28125 L 9.34375 -21.25 L 9.421875 -21.0625 Z M 2.046875 -21.171875 L 2.015625 -21.171875 L 1.9375 -21.140625 L 2.015625 -21.109375 Z M 8.734375 -20.859375 C 8.804688 -20.859375 8.84375 -20.90625 8.84375 -21 C 8.84375 -21.09375 8.785156 -21.140625 8.671875 -21.140625 L 8.59375 -21.109375 L 8.5625 -21.109375 L 8.515625 -21.0625 C 8.472656 -21.019531 8.453125 -20.972656 8.453125 -20.921875 L 8.484375 -20.859375 Z M 14.09375 -21.109375 L 14.015625 -21.109375 L 14.015625 -20.921875 L 14.09375 -20.921875 Z M 8.671875 -19.34375 L 8.59375 -19.34375 L 8.59375 -19.234375 L 8.671875 -19.234375 Z M 5.75 -19.234375 C 5.707031 -19.234375 5.6875 -19.195312 5.6875 -19.125 L 5.75 -19.125 L 5.78125 -19.15625 C 5.757812 -19.15625 5.75 -19.179688 5.75 -19.234375 Z M 5.53125 -17.46875 C 5.488281 -17.425781 5.46875 -17.40625 5.46875 -17.40625 L 5.640625 -17.359375 C 5.671875 -17.390625 5.671875 -17.453125 5.640625 -17.546875 C 5.617188 -17.546875 5.582031 -17.519531 5.53125 -17.46875 Z M 5.71875 -16.75 L 5.75 -16.796875 L 5.578125 -16.828125 L 5.578125 -16.796875 Z M 5.9375 -15.3125 L 6.109375 -15.3125 L 6.109375 -15.5 L 5.9375 -15.5 Z M 6.046875 -14.84375 C 5.972656 -14.84375 5.921875 -14.859375 5.890625 -14.890625 L 5.75 -14.921875 L 5.71875 -14.890625 C 5.644531 -14.859375 5.609375 -14.804688 5.609375 -14.734375 C 5.609375 -14.617188 5.703125 -14.5625 5.890625 -14.5625 C 5.960938 -14.5625 6.015625 -14.570312 6.046875 -14.59375 Z M 8.765625 -14.640625 L 8.8125 -14.640625 L 8.8125 -14.671875 Z M 13.90625 -14.171875 C 13.976562 -14.171875 14.039062 -14.15625 14.09375 -14.125 L 14.265625 -14.09375 L 14.421875 -14.265625 L 14.421875 -14.5625 C 14.390625 -14.582031 14.34375 -14.601562 14.28125 -14.625 C 14.226562 -14.65625 14.175781 -14.671875 14.125 -14.671875 L 13.90625 -14.53125 Z M 8.953125 -14.59375 L 9.03125 -14.640625 L 8.953125 -14.640625 Z M 8.015625 -14.234375 L 8.203125 -14.09375 C 8.242188 -14.113281 8.269531 -14.15625 8.28125 -14.21875 C 8.300781 -14.28125 8.285156 -14.320312 8.234375 -14.34375 Z M 8.953125 -14.203125 L 9.09375 -14.125 L 9.171875 -14.34375 L 9.03125 -14.34375 Z M 6.828125 -13.953125 C 6.972656 -13.992188 6.972656 -14.066406 6.828125 -14.171875 Z M 6.296875 -13.734375 L 6.4375 -13.59375 L 6.609375 -13.546875 L 6.65625 -13.59375 L 6.71875 -13.59375 L 6.71875 -13.765625 C 6.625 -13.765625 6.550781 -13.789062 6.5 -13.84375 L 6.4375 -13.8125 C 6.4375 -13.8125 6.429688 -13.800781 6.421875 -13.78125 C 6.410156 -13.769531 6.40625 -13.765625 6.40625 -13.765625 Z M 8.015625 -13.765625 L 8.09375 -13.625 L 8.34375 -13.625 L 8.234375 -13.703125 L 8.09375 -13.8125 Z M 5.640625 -13.65625 C 5.617188 -13.6875 5.570312 -13.710938 5.5 -13.734375 C 5.425781 -13.753906 5.367188 -13.765625 5.328125 -13.765625 C 5.328125 -13.722656 5.359375 -13.675781 5.421875 -13.625 C 5.472656 -13.570312 5.582031 -13.546875 5.75 -13.546875 L 5.859375 -13.546875 L 5.859375 -13.65625 Z M 7.953125 -13.234375 L 8.234375 -13.234375 C 8.285156 -13.253906 8.3125 -13.289062 8.3125 -13.34375 L 8.3125 -13.484375 L 8.015625 -13.484375 L 7.984375 -13.34375 Z M 5.390625 -13.015625 C 5.390625 -12.992188 5.394531 -12.972656 5.40625 -12.953125 C 5.414062 -12.941406 5.4375 -12.953125 5.46875 -12.984375 L 5.578125 -13.015625 L 5.5 -13.046875 L 5.46875 -13.046875 C 5.414062 -13.046875 5.390625 -13.035156 5.390625 -13.015625 Z M 4.96875 -12.328125 C 5.082031 -12.328125 5.164062 -12.351562 5.21875 -12.40625 C 5.164062 -12.40625 5.113281 -12.425781 5.0625 -12.46875 L 5.03125 -12.515625 L 4.859375 -12.515625 C 4.785156 -12.441406 4.75 -12.367188 4.75 -12.296875 Z M 5.46875 -12.15625 C 5.34375 -12.15625 5.175781 -12.175781 4.96875 -12.21875 L 4.859375 -12.15625 L 4.96875 -12.015625 C 5.007812 -12.128906 5.066406 -12.160156 5.140625 -12.109375 C 5.285156 -12.109375 5.394531 -12.125 5.46875 -12.15625 Z M 3.921875 -12.15625 C 3.847656 -12.125 3.8125 -12.078125 3.8125 -12.015625 L 3.921875 -11.9375 L 4.0625 -11.96875 C 4.0625 -12.019531 4.097656 -12.054688 4.171875 -12.078125 L 4.0625 -12.109375 Z M 13.703125 -11.1875 L 13.84375 -11.359375 L 13.90625 -11.5 L 13.84375 -11.75 C 13.820312 -11.78125 13.773438 -11.890625 13.703125 -12.078125 Z M 5.421875 -11.5 C 5.421875 -11.550781 5.492188 -11.671875 5.640625 -11.859375 L 5.5 -11.90625 L 5.359375 -11.90625 C 5.285156 -11.90625 5.210938 -11.878906 5.140625 -11.828125 L 4.859375 -11.71875 C 4.929688 -11.695312 4.992188 -11.671875 5.046875 -11.640625 C 5.109375 -11.617188 5.148438 -11.597656 5.171875 -11.578125 C 5.128906 -11.453125 5.117188 -11.367188 5.140625 -11.328125 L 5.46875 -11.390625 Z M 4.453125 -11.578125 C 4.523438 -11.523438 4.585938 -11.523438 4.640625 -11.578125 L 4.609375 -11.609375 L 4.53125 -11.65625 L 4.453125 -11.609375 Z M 5.609375 -11.609375 C 5.628906 -11.535156 5.65625 -11.488281 5.6875 -11.46875 C 5.726562 -11.445312 5.785156 -11.4375 5.859375 -11.4375 C 5.878906 -11.4375 5.960938 -11.457031 6.109375 -11.5 L 6 -11.609375 Z M 4.53125 -11.5 C 4.382812 -11.425781 4.347656 -11.367188 4.421875 -11.328125 L 4.453125 -11.1875 C 4.554688 -11.1875 4.628906 -11.207031 4.671875 -11.25 C 4.671875 -11.34375 4.625 -11.425781 4.53125 -11.5 Z M 6.140625 -11.140625 L 5.96875 -11.140625 C 5.894531 -11.140625 5.859375 -11.117188 5.859375 -11.078125 C 5.859375 -11.023438 5.832031 -11 5.78125 -11 C 5.78125 -11.125 5.75 -11.195312 5.6875 -11.21875 L 5.46875 -11.21875 C 5.46875 -11.164062 5.488281 -11.140625 5.53125 -11.140625 L 5.640625 -11.03125 L 5.390625 -10.9375 L 5.21875 -10.78125 C 5.238281 -10.757812 5.265625 -10.75 5.296875 -10.75 C 5.335938 -10.75 5.367188 -10.738281 5.390625 -10.71875 L 5.6875 -10.71875 C 5.78125 -10.71875 5.929688 -10.765625 6.140625 -10.859375 Z M 4.859375 -11 C 4.785156 -11 4.722656 -10.957031 4.671875 -10.875 C 4.628906 -10.789062 4.609375 -10.710938 4.609375 -10.640625 L 4.609375 -10.46875 C 4.722656 -10.363281 4.828125 -10.3125 4.921875 -10.3125 L 5.03125 -10.3125 L 5.140625 -10.390625 L 5.140625 -10.859375 L 5 -10.96875 Z M 4.28125 -10.828125 C 4.257812 -10.828125 4.222656 -10.804688 4.171875 -10.765625 C 4.117188 -10.734375 4.09375 -10.703125 4.09375 -10.671875 C 4.195312 -10.648438 4.28125 -10.648438 4.34375 -10.671875 Z M 12.265625 -10.609375 L 12.6875 -10.609375 L 12.6875 -10.71875 L 12.265625 -10.71875 Z M 5.96875 -10.5 C 6.019531 -10.5 6.046875 -10.535156 6.046875 -10.609375 L 5.828125 -10.609375 L 5.75 -10.5 Z M 3.984375 -10.46875 C 3.867188 -10.4375 3.8125 -10.382812 3.8125 -10.3125 L 3.984375 -10.3125 C 4.015625 -10.34375 4.015625 -10.394531 3.984375 -10.46875 Z M 5.640625 -10.25 C 5.691406 -10.21875 5.765625 -10.203125 5.859375 -10.203125 C 5.859375 -10.273438 5.8125 -10.335938 5.71875 -10.390625 Z M 4.609375 -10.25 C 4.503906 -10.15625 4.453125 -10.082031 4.453125 -10.03125 L 4.78125 -10 L 4.859375 -10.140625 C 4.804688 -10.179688 4.78125 -10.21875 4.78125 -10.25 Z M 5.21875 -9.953125 L 5.171875 -10.171875 C 5.054688 -10.171875 5 -10.125 5 -10.03125 L 5 -9.890625 Z M 5.890625 -9.890625 C 5.890625 -9.929688 5.867188 -9.953125 5.828125 -9.953125 L 5.75 -10.03125 C 5.707031 -10.007812 5.597656 -10 5.421875 -10 L 5.28125 -9.953125 L 5.21875 -9.921875 L 5.390625 -9.78125 C 5.535156 -9.820312 5.617188 -9.84375 5.640625 -9.84375 Z M 5.328125 -9.53125 L 5.421875 -9.59375 L 5.140625 -9.671875 L 5.140625 -9.53125 Z M 5.0625 -9.53125 C 4.96875 -9.570312 4.875 -9.59375 4.78125 -9.59375 L 4.859375 -9.453125 C 4.953125 -9.453125 5.019531 -9.476562 5.0625 -9.53125 Z M 4.640625 -9.3125 C 4.640625 -9.289062 4.613281 -9.253906 4.5625 -9.203125 L 4.96875 -9.171875 C 5.007812 -9.171875 5.03125 -9.207031 5.03125 -9.28125 Z M 4.28125 -9.0625 C 4.320312 -8.988281 4.394531 -8.953125 4.5 -8.953125 L 4.34375 -9.234375 L 4.09375 -9.203125 Z M 4.890625 -8.734375 C 4.835938 -8.828125 4.828125 -8.890625 4.859375 -8.921875 C 4.878906 -8.992188 4.878906 -9.039062 4.859375 -9.0625 L 4.75 -8.953125 C 4.71875 -8.953125 4.703125 -8.925781 4.703125 -8.875 L 4.703125 -8.734375 Z M 5.609375 -8.8125 C 5.722656 -8.8125 5.78125 -8.859375 5.78125 -8.953125 L 5.609375 -8.953125 Z M 3.703125 -8.921875 C 3.628906 -8.890625 3.59375 -8.851562 3.59375 -8.8125 L 3.8125 -8.734375 C 3.8125 -8.785156 3.820312 -8.820312 3.84375 -8.84375 L 3.890625 -8.875 Z M 4.703125 -8.671875 L 4.703125 -8.515625 L 4.8125 -8.515625 L 4.8125 -8.671875 Z M 4.890625 -8.59375 C 4.890625 -8.539062 4.898438 -8.515625 4.921875 -8.515625 L 4.96875 -8.453125 L 5.21875 -8.515625 C 5.1875 -8.515625 5.171875 -8.539062 5.171875 -8.59375 L 5.171875 -8.625 C 5.128906 -8.625 5.09375 -8.617188 5.0625 -8.609375 C 5.039062 -8.597656 5.019531 -8.59375 5 -8.59375 Z M 5.46875 -8.265625 L 5.25 -8.265625 L 5.25 -8.125 L 5.46875 -8.125 Z M 3.421875 -8.046875 C 3.367188 -7.984375 3.378906 -7.914062 3.453125 -7.84375 C 3.566406 -7.882812 3.625 -7.953125 3.625 -8.046875 Z M 4.171875 -7.796875 L 4.25 -7.765625 C 4.289062 -7.765625 4.320312 -7.773438 4.34375 -7.796875 L 4.3125 -7.984375 L 4.25 -7.984375 C 4.25 -7.984375 4.238281 -7.976562 4.21875 -7.96875 C 4.207031 -7.957031 4.203125 -7.953125 4.203125 -7.953125 L 4.140625 -7.953125 L 4.140625 -7.796875 Z M 3.421875 -7.21875 C 3.515625 -7.21875 3.570312 -7.234375 3.59375 -7.265625 C 3.59375 -7.285156 3.597656 -7.300781 3.609375 -7.3125 C 3.617188 -7.320312 3.640625 -7.34375 3.671875 -7.375 L 3.5625 -7.4375 L 3.375 -7.375 Z M 4.453125 -7.296875 L 4.28125 -7.296875 L 4.28125 -7.265625 L 4.421875 -7.21875 Z M 3.890625 -6.859375 C 3.929688 -6.816406 3.988281 -6.796875 4.0625 -6.796875 L 4.0625 -6.90625 C 4.0625 -6.90625 4.0625 -6.941406 4.0625 -7.015625 C 3.988281 -7.015625 3.929688 -6.960938 3.890625 -6.859375 Z M 7.046875 -5.5 L 7.328125 -5.5 L 7.328125 -5.578125 L 7.046875 -5.578125 Z M 8.484375 -5.46875 C 8.367188 -5.394531 8.3125 -5.359375 8.3125 -5.359375 C 8.375 -5.335938 8.40625 -5.289062 8.40625 -5.21875 L 8.59375 -5.21875 C 8.644531 -5.257812 8.671875 -5.296875 8.671875 -5.328125 L 8.703125 -5.390625 L 8.625 -5.578125 C 8.625 -5.546875 8.613281 -5.519531 8.59375 -5.5 C 8.570312 -5.476562 8.535156 -5.46875 8.484375 -5.46875 Z M 10.53125 -5.328125 L 10.609375 -5.328125 L 10.640625 -5.390625 L 10.609375 -5.421875 Z M 7.484375 -5.390625 L 7.265625 -5.390625 L 7.265625 -5.328125 L 7.484375 -5.328125 Z M 9.125 -5.109375 L 9.28125 -5.140625 C 9.28125 -5.160156 9.265625 -5.171875 9.234375 -5.171875 C 9.234375 -5.171875 9.210938 -5.195312 9.171875 -5.25 Z M 7.046875 -5.03125 L 7.125 -4.96875 C 7.238281 -5.007812 7.257812 -5.054688 7.1875 -5.109375 C 7.144531 -5.109375 7.125 -5.09375 7.125 -5.0625 L 7.046875 -5.0625 Z M 8.3125 -4.96875 C 8.257812 -5.007812 8.195312 -5.03125 8.125 -5.03125 L 8.203125 -4.78125 C 8.203125 -4.78125 8.207031 -4.785156 8.21875 -4.796875 C 8.226562 -4.804688 8.234375 -4.8125 8.234375 -4.8125 C 8.253906 -4.8125 8.265625 -4.835938 8.265625 -4.890625 C 8.296875 -4.890625 8.3125 -4.914062 8.3125 -4.96875 Z M 8.984375 -4.890625 C 8.867188 -4.835938 8.8125 -4.773438 8.8125 -4.703125 L 8.984375 -4.703125 C 8.984375 -4.753906 9 -4.789062 9.03125 -4.8125 Z M 3.890625 -4.34375 L 3.890625 -4.140625 C 3.890625 -4.140625 3.910156 -4.160156 3.953125 -4.203125 L 4.09375 -4.34375 Z M 4.609375 -4.34375 C 4.609375 -4.28125 4.664062 -4.25 4.78125 -4.25 L 4.78125 -4.3125 C 4.78125 -4.332031 4.789062 -4.34375 4.8125 -4.34375 Z M 6.46875 -4.25 L 6.546875 -4.09375 L 6.609375 -4.09375 L 6.5 -4.25 Z M 9.921875 -4.140625 C 9.921875 -4.015625 9.984375 -3.953125 10.109375 -3.953125 L 10.171875 -4.0625 L 10.203125 -4.140625 Z M 8.671875 -4.0625 L 8.59375 -4.0625 L 8.5625 -3.953125 L 8.671875 -3.953125 Z M 7.515625 -3.84375 C 7.515625 -3.84375 7.519531 -3.847656 7.53125 -3.859375 C 7.539062 -3.878906 7.546875 -3.890625 7.546875 -3.890625 L 7.484375 -3.953125 L 7.40625 -3.953125 L 7.484375 -3.8125 C 7.484375 -3.8125 7.488281 -3.816406 7.5 -3.828125 C 7.507812 -3.835938 7.515625 -3.84375 7.515625 -3.84375 Z M 4.390625 -3.453125 L 4.09375 -3.453125 L 4.09375 -3.265625 L 4.390625 -3.265625 Z M 1.078125 -2.65625 C 1.078125 -2.78125 1.113281 -2.851562 1.1875 -2.875 L 0.71875 -2.875 L 0.71875 -2.65625 Z M 14.171875 -2.734375 L 14.59375 -2.65625 L 14.59375 -2.765625 L 14.234375 -2.875 Z M 3.421875 -2.796875 L 3.015625 -2.796875 L 3.015625 -2.65625 L 3.421875 -2.65625 Z M 5.78125 -2.65625 L 5.78125 -2.484375 L 6.078125 -2.484375 L 6.078125 -2.65625 Z M 7.765625 -2.515625 C 7.742188 -2.460938 7.734375 -2.367188 7.734375 -2.234375 L 7.765625 -2.046875 L 8.265625 -2.046875 L 8.34375 -2.1875 C 8.363281 -2.21875 8.375 -2.269531 8.375 -2.34375 L 8.203125 -2.515625 Z M 2.234375 -2.34375 L 2.625 -2.34375 L 2.625 -2.484375 L 2.234375 -2.484375 Z M 3.8125 -1.578125 C 3.882812 -1.609375 3.941406 -1.675781 3.984375 -1.78125 C 4.035156 -1.882812 4.0625 -2 4.0625 -2.125 C 4.0625 -2.269531 4.023438 -2.375 3.953125 -2.4375 C 3.910156 -2.4375 3.816406 -2.40625 3.671875 -2.34375 C 3.765625 -2.125 3.8125 -1.867188 3.8125 -1.578125 Z M 0.21875 -2.078125 C 0.238281 -2.015625 0.300781 -1.988281 0.40625 -2 C 0.519531 -2.007812 0.597656 -2.035156 0.640625 -2.078125 Z M 1.71875 -1.9375 L 1.65625 -1.9375 L 1.65625 -2.078125 L 1.328125 -2.078125 L 1.328125 -1.9375 L 1.65625 -1.9375 L 1.65625 -1.796875 L 1.71875 -1.796875 Z M 5.46875 -1.875 C 5.269531 -1.875 5.132812 -1.859375 5.0625 -1.828125 L 4.859375 -1.765625 L 4.671875 -1.71875 C 4.722656 -1.695312 4.769531 -1.65625 4.8125 -1.59375 C 4.863281 -1.539062 4.898438 -1.488281 4.921875 -1.4375 C 5.046875 -1.507812 5.164062 -1.601562 5.28125 -1.71875 Z M 3.015625 -1.546875 C 3.066406 -1.617188 3.09375 -1.691406 3.09375 -1.765625 L 2.484375 -1.765625 L 2.484375 -1.4375 C 2.671875 -1.4375 2.835938 -1.410156 2.984375 -1.359375 Z M 9.59375 -1.578125 L 9.84375 -1.578125 L 9.84375 -1.65625 L 9.59375 -1.65625 Z M 14.171875 -1.109375 C 14.171875 -1.035156 14.144531 -1 14.09375 -1 C 14.164062 -1 14.238281 -1.035156 14.3125 -1.109375 Z M 2.59375 -1.046875 L 2.296875 -1.046875 L 2.296875 -0.90625 L 2.59375 -0.90625 Z M 2.59375 -1.046875 "/></g></g></g></svg>