<?xml version="1.0" encoding="UTF-8"?><svg xmlns="http://www.w3.org/2000/svg" xmlns:xlink="http://www.w3.org/1999/xlink" width="375pt" zoomAndPan="magnify" viewBox="0 0 375 374.999991" height="374.999991pt" preserveAspectRatio="xMidYMid meet" version="1.2"><defs><clipPath xml:id="clip1" id="clip1"><path d="M 150 182 L 225 182 L 225 233.53125 L 150 233.53125 Z M 150 182 "/></clipPath><clipPath xml:id="clip2" id="clip2"><path d="M 155 141.28125 L 221 141.28125 L 221 160 L 155 160 Z M 155 141.28125 "/></clipPath><clipPath xml:id="clip3" id="clip3"><path d="M 141.28125 164 L 233.53125 164 L 233.53125 179 L 141.28125 179 Z M 141.28125 164 "/></clipPath></defs><g xml:id="surface1" id="surface1"><path style=" stroke:none;fill-rule:nonzero;fill:rgb(10.198975%,10.198975%,10.5896%);fill-opacity:1;" d="M 201.253906 203.550781 L 203.5625 203.550781 C 204.015625 203.550781 204.464844 203.507812 204.910156 203.417969 C 205.355469 203.328125 205.789062 203.199219 206.207031 203.023438 C 206.628906 202.851562 207.027344 202.636719 207.40625 202.382812 C 207.78125 202.132812 208.132812 201.84375 208.453125 201.523438 C 208.773438 201.203125 209.0625 200.851562 209.3125 200.476562 C 209.566406 200.097656 209.777344 199.699219 209.953125 199.277344 C 210.125 198.859375 210.257812 198.425781 210.347656 197.980469 C 210.433594 197.535156 210.480469 197.085938 210.480469 196.632812 C 210.480469 196.324219 210.421875 196.03125 210.304688 195.75 C 210.1875 195.464844 210.019531 195.21875 209.804688 195 C 209.585938 194.785156 209.339844 194.617188 209.054688 194.5 C 208.773438 194.382812 208.480469 194.324219 208.171875 194.324219 L 196.640625 194.324219 C 196.335938 194.324219 196.042969 194.382812 195.757812 194.5 C 195.476562 194.617188 195.226562 194.785156 195.011719 195 C 194.796875 195.21875 194.628906 195.464844 194.511719 195.75 C 194.394531 196.03125 194.335938 196.324219 194.335938 196.632812 C 194.335938 197.085938 194.378906 197.535156 194.46875 197.980469 C 194.558594 198.425781 194.6875 198.859375 194.863281 199.277344 C 195.035156 199.699219 195.25 200.097656 195.5 200.476562 C 195.753906 200.851562 196.039062 201.203125 196.363281 201.523438 C 196.683594 201.84375 197.03125 202.132812 197.410156 202.382812 C 197.789062 202.636719 198.1875 202.851562 198.605469 203.023438 C 199.027344 203.199219 199.460938 203.328125 199.90625 203.417969 C 200.351562 203.507812 200.800781 203.550781 201.253906 203.550781 Z M 201.253906 203.550781 "/><path style=" stroke:none;fill-rule:nonzero;fill:rgb(10.198975%,10.198975%,10.5896%);fill-opacity:1;" d="M 171.273438 203.550781 L 173.578125 203.550781 C 174.035156 203.550781 174.484375 203.507812 174.929688 203.417969 C 175.375 203.328125 175.808594 203.199219 176.226562 203.023438 C 176.648438 202.851562 177.046875 202.636719 177.421875 202.382812 C 177.800781 202.132812 178.152344 201.84375 178.472656 201.523438 C 178.792969 201.203125 179.078125 200.851562 179.332031 200.476562 C 179.585938 200.097656 179.796875 199.699219 179.972656 199.277344 C 180.144531 198.859375 180.277344 198.425781 180.367188 197.980469 C 180.453125 197.535156 180.5 197.085938 180.5 196.632812 C 180.5 196.324219 180.441406 196.03125 180.324219 195.75 C 180.207031 195.464844 180.039062 195.21875 179.824219 195 C 179.605469 194.785156 179.355469 194.617188 179.074219 194.5 C 178.792969 194.382812 178.496094 194.324219 178.191406 194.324219 L 166.660156 194.324219 C 166.355469 194.324219 166.0625 194.382812 165.777344 194.5 C 165.496094 194.617188 165.246094 194.785156 165.03125 195 C 164.8125 195.21875 164.648438 195.464844 164.53125 195.75 C 164.414062 196.03125 164.355469 196.324219 164.355469 196.632812 C 164.355469 197.085938 164.398438 197.535156 164.488281 197.980469 C 164.574219 198.425781 164.707031 198.859375 164.882812 199.277344 C 165.054688 199.699219 165.269531 200.097656 165.519531 200.476562 C 165.773438 200.851562 166.058594 201.203125 166.382812 201.523438 C 166.703125 201.84375 167.050781 202.132812 167.429688 202.382812 C 167.808594 202.636719 168.207031 202.851562 168.625 203.023438 C 169.046875 203.199219 169.476562 203.328125 169.921875 203.417969 C 170.367188 203.507812 170.820312 203.550781 171.273438 203.550781 Z M 171.273438 203.550781 "/><g clip-rule="nonzero" clip-path="url(#clip1)"><path style=" stroke:none;fill-rule:nonzero;fill:rgb(10.198975%,10.198975%,10.5896%);fill-opacity:1;" d="M 150.515625 196.632812 C 150.515625 216.96875 167.078125 233.53125 187.417969 233.53125 C 207.753906 233.53125 224.316406 216.96875 224.316406 196.632812 L 224.316406 182.792969 L 150.515625 182.792969 Z M 192.03125 219.695312 L 182.804688 219.695312 C 182.5 219.695312 182.203125 219.636719 181.921875 219.519531 C 181.640625 219.402344 181.390625 219.234375 181.171875 219.019531 C 180.957031 218.800781 180.789062 218.554688 180.671875 218.269531 C 180.558594 217.988281 180.5 217.695312 180.5 217.386719 C 180.5 217.082031 180.558594 216.789062 180.671875 216.503906 C 180.789062 216.222656 180.957031 215.972656 181.171875 215.757812 C 181.390625 215.539062 181.640625 215.375 181.921875 215.257812 C 182.203125 215.140625 182.5 215.082031 182.804688 215.082031 L 192.03125 215.082031 C 192.335938 215.082031 192.628906 215.140625 192.910156 215.257812 C 193.195312 215.375 193.445312 215.539062 193.660156 215.757812 C 193.875 215.972656 194.042969 216.222656 194.160156 216.503906 C 194.277344 216.789062 194.335938 217.082031 194.335938 217.386719 C 194.335938 217.695312 194.277344 217.988281 194.160156 218.269531 C 194.042969 218.554688 193.875 218.800781 193.660156 219.019531 C 193.445312 219.234375 193.195312 219.402344 192.910156 219.519531 C 192.628906 219.636719 192.335938 219.695312 192.03125 219.695312 Z M 166.660156 189.710938 L 178.191406 189.710938 C 178.90625 189.714844 179.601562 189.824219 180.28125 190.042969 C 180.960938 190.261719 181.589844 190.578125 182.171875 190.988281 C 182.753906 191.402344 183.261719 191.894531 183.691406 192.460938 C 184.121094 193.03125 184.453125 193.652344 184.691406 194.324219 L 190.140625 194.324219 C 190.378906 193.652344 190.714844 193.03125 191.144531 192.460938 C 191.574219 191.894531 192.078125 191.402344 192.660156 190.988281 C 193.242188 190.578125 193.875 190.261719 194.554688 190.042969 C 195.230469 189.824219 195.929688 189.714844 196.640625 189.710938 L 208.171875 189.710938 C 208.628906 189.710938 209.078125 189.757812 209.523438 189.84375 C 209.96875 189.933594 210.402344 190.066406 210.820312 190.238281 C 211.242188 190.414062 211.640625 190.625 212.015625 190.878906 C 212.394531 191.132812 212.746094 191.417969 213.066406 191.738281 C 213.386719 192.058594 213.671875 192.410156 213.925781 192.789062 C 214.179688 193.164062 214.390625 193.5625 214.566406 193.984375 C 214.738281 194.402344 214.871094 194.835938 214.960938 195.28125 C 215.046875 195.726562 215.09375 196.175781 215.09375 196.632812 C 215.089844 197.386719 215.015625 198.136719 214.867188 198.878906 C 214.71875 199.621094 214.5 200.34375 214.207031 201.042969 C 213.917969 201.738281 213.5625 202.402344 213.140625 203.03125 C 212.722656 203.660156 212.242188 204.242188 211.707031 204.777344 C 211.171875 205.3125 210.589844 205.792969 209.960938 206.214844 C 209.332031 206.632812 208.667969 206.988281 207.96875 207.28125 C 207.269531 207.570312 206.550781 207.789062 205.808594 207.9375 C 205.066406 208.085938 204.316406 208.160156 203.5625 208.164062 L 201.253906 208.164062 C 200.59375 208.164062 199.941406 208.105469 199.289062 207.996094 C 198.640625 207.882812 198.003906 207.714844 197.382812 207.492188 C 196.761719 207.273438 196.164062 207 195.589844 206.675781 C 195.015625 206.351562 194.472656 205.980469 193.960938 205.5625 C 193.449219 205.148438 192.976562 204.691406 192.542969 204.191406 C 192.113281 203.691406 191.726562 203.160156 191.382812 202.597656 C 191.042969 202.03125 190.753906 201.441406 190.511719 200.828125 C 190.273438 200.214844 190.085938 199.585938 189.953125 198.9375 L 184.878906 198.9375 C 184.75 199.582031 184.5625 200.214844 184.324219 200.828125 C 184.082031 201.441406 183.792969 202.03125 183.449219 202.597656 C 183.109375 203.160156 182.722656 203.691406 182.289062 204.191406 C 181.859375 204.6875 181.386719 205.144531 180.875 205.5625 C 180.363281 205.980469 179.820312 206.351562 179.246094 206.675781 C 178.671875 207 178.074219 207.273438 177.453125 207.492188 C 176.832031 207.714844 176.195312 207.882812 175.542969 207.996094 C 174.894531 208.105469 174.238281 208.164062 173.578125 208.164062 L 171.273438 208.164062 C 170.515625 208.160156 169.765625 208.085938 169.023438 207.9375 C 168.28125 207.789062 167.5625 207.570312 166.863281 207.28125 C 166.164062 206.988281 165.5 206.632812 164.871094 206.214844 C 164.242188 205.792969 163.660156 205.3125 163.125 204.777344 C 162.589844 204.242188 162.113281 203.660156 161.691406 203.03125 C 161.269531 202.402344 160.914062 201.738281 160.625 201.042969 C 160.335938 200.34375 160.117188 199.621094 159.96875 198.878906 C 159.816406 198.136719 159.742188 197.386719 159.742188 196.632812 C 159.742188 196.175781 159.785156 195.726562 159.875 195.28125 C 159.964844 194.835938 160.09375 194.402344 160.269531 193.984375 C 160.441406 193.5625 160.65625 193.164062 160.90625 192.789062 C 161.160156 192.410156 161.445312 192.058594 161.769531 191.738281 C 162.089844 191.417969 162.4375 191.132812 162.816406 190.878906 C 163.195312 190.625 163.59375 190.414062 164.011719 190.238281 C 164.433594 190.066406 164.867188 189.933594 165.3125 189.84375 C 165.757812 189.757812 166.207031 189.710938 166.660156 189.710938 Z M 166.660156 189.710938 "/></g><g clip-rule="nonzero" clip-path="url(#clip2)"><path style=" stroke:none;fill-rule:nonzero;fill:rgb(10.198975%,10.198975%,10.5896%);fill-opacity:1;" d="M 215.027344 143.023438 C 214.964844 142.773438 214.859375 142.542969 214.71875 142.328125 C 214.578125 142.113281 214.40625 141.925781 214.203125 141.769531 C 214 141.613281 213.777344 141.492188 213.535156 141.410156 C 213.292969 141.324219 213.042969 141.28125 212.785156 141.28125 L 194.335938 141.28125 C 193.566406 141.277344 192.949219 141.585938 192.492188 142.203125 L 187.417969 148.976562 L 182.34375 142.203125 C 181.882812 141.585938 181.269531 141.277344 180.5 141.28125 L 162.046875 141.28125 C 161.792969 141.28125 161.542969 141.324219 161.300781 141.410156 C 161.054688 141.492188 160.832031 141.613281 160.628906 141.769531 C 160.425781 141.925781 160.253906 142.113281 160.113281 142.328125 C 159.972656 142.542969 159.871094 142.773438 159.804688 143.023438 L 155.003906 159.730469 L 220.101562 159.730469 Z M 215.027344 143.023438 "/></g><g clip-rule="nonzero" clip-path="url(#clip3)"><path style=" stroke:none;fill-rule:nonzero;fill:rgb(10.198975%,10.198975%,10.5896%);fill-opacity:1;" d="M 231.234375 173.570312 L 223.8125 173.570312 L 221.507812 164.34375 L 153.683594 164.34375 L 151.019531 173.570312 L 143.597656 173.570312 C 143.292969 173.570312 143 173.628906 142.714844 173.746094 C 142.433594 173.863281 142.183594 174.027344 141.96875 174.246094 C 141.75 174.460938 141.585938 174.710938 141.46875 174.992188 C 141.351562 175.273438 141.292969 175.570312 141.292969 175.875 C 141.292969 176.179688 141.351562 176.476562 141.46875 176.757812 C 141.585938 177.039062 141.75 177.289062 141.96875 177.507812 C 142.183594 177.722656 142.433594 177.890625 142.714844 178.007812 C 143 178.121094 143.292969 178.179688 143.597656 178.179688 L 231.234375 178.179688 C 231.542969 178.179688 231.835938 178.121094 232.117188 178.007812 C 232.402344 177.890625 232.648438 177.722656 232.867188 177.507812 C 233.082031 177.289062 233.25 177.039062 233.367188 176.757812 C 233.484375 176.476562 233.542969 176.179688 233.542969 175.875 C 233.542969 175.570312 233.484375 175.273438 233.367188 174.992188 C 233.25 174.710938 233.082031 174.460938 232.867188 174.246094 C 232.648438 174.027344 232.402344 173.863281 232.117188 173.746094 C 231.835938 173.628906 231.542969 173.570312 231.234375 173.570312 Z M 231.234375 173.570312 "/></g></g></svg>