<?xml version="1.0" encoding="UTF-8"?><svg xmlns="http://www.w3.org/2000/svg" xmlns:xlink="http://www.w3.org/1999/xlink" width="375pt" zoomAndPan="magnify" viewBox="0 0 375 374.999991" height="374.999991pt" preserveAspectRatio="xMidYMid meet" version="1.2"><defs><clipPath xml:id="clip1" id="clip1"><path d="M 150 182 L 225 182 L 225 233.625 L 150 233.625 Z M 150 182 "/></clipPath><clipPath xml:id="clip2" id="clip2"><path d="M 155 141.375 L 221 141.375 L 221 160 L 155 160 Z M 155 141.375 "/></clipPath><clipPath xml:id="clip3" id="clip3"><path d="M 141.375 164 L 233.625 164 L 233.625 179 L 141.375 179 Z M 141.375 164 "/></clipPath></defs><g xml:id="surface1" id="surface1"><path style=" stroke:none;fill-rule:nonzero;fill:rgb(97.24884%,98.429871%,97.24884%);fill-opacity:1;" d="M 201.347656 203.644531 L 203.65625 203.644531 C 204.109375 203.644531 204.558594 203.601562 205.003906 203.511719 C 205.449219 203.421875 205.882812 203.292969 206.304688 203.117188 C 206.722656 202.945312 207.121094 202.730469 207.5 202.480469 C 207.878906 202.226562 208.226562 201.941406 208.546875 201.617188 C 208.871094 201.296875 209.15625 200.949219 209.410156 200.570312 C 209.660156 200.191406 209.875 199.792969 210.046875 199.375 C 210.222656 198.953125 210.351562 198.523438 210.441406 198.078125 C 210.53125 197.628906 210.574219 197.179688 210.574219 196.726562 C 210.574219 196.421875 210.515625 196.125 210.398438 195.84375 C 210.28125 195.5625 210.117188 195.3125 209.898438 195.097656 C 209.683594 194.878906 209.433594 194.714844 209.152344 194.597656 C 208.867188 194.480469 208.574219 194.421875 208.269531 194.421875 L 196.738281 194.421875 C 196.429688 194.421875 196.136719 194.480469 195.855469 194.597656 C 195.570312 194.714844 195.324219 194.878906 195.105469 195.097656 C 194.890625 195.3125 194.722656 195.5625 194.605469 195.84375 C 194.488281 196.125 194.429688 196.421875 194.429688 196.726562 C 194.429688 197.179688 194.476562 197.628906 194.5625 198.078125 C 194.652344 198.523438 194.785156 198.953125 194.957031 199.375 C 195.132812 199.792969 195.34375 200.191406 195.597656 200.570312 C 195.847656 200.949219 196.136719 201.296875 196.457031 201.617188 C 196.777344 201.941406 197.128906 202.226562 197.503906 202.480469 C 197.882812 202.730469 198.28125 202.945312 198.703125 203.117188 C 199.121094 203.292969 199.554688 203.421875 200 203.511719 C 200.445312 203.601562 200.894531 203.644531 201.347656 203.644531 Z M 201.347656 203.644531 "/><path style=" stroke:none;fill-rule:nonzero;fill:rgb(97.24884%,98.429871%,97.24884%);fill-opacity:1;" d="M 171.367188 203.644531 L 173.675781 203.644531 C 174.128906 203.644531 174.578125 203.601562 175.023438 203.511719 C 175.46875 203.421875 175.902344 203.292969 176.320312 203.117188 C 176.742188 202.945312 177.140625 202.730469 177.519531 202.480469 C 177.894531 202.226562 178.246094 201.941406 178.566406 201.617188 C 178.886719 201.296875 179.175781 200.949219 179.425781 200.570312 C 179.679688 200.191406 179.894531 199.792969 180.066406 199.375 C 180.242188 198.953125 180.371094 198.523438 180.460938 198.078125 C 180.550781 197.628906 180.59375 197.179688 180.59375 196.726562 C 180.59375 196.421875 180.535156 196.125 180.417969 195.84375 C 180.300781 195.5625 180.132812 195.3125 179.917969 195.097656 C 179.703125 194.878906 179.453125 194.714844 179.167969 194.597656 C 178.886719 194.480469 178.59375 194.421875 178.285156 194.421875 L 166.753906 194.421875 C 166.449219 194.421875 166.15625 194.480469 165.875 194.597656 C 165.589844 194.714844 165.339844 194.878906 165.125 195.097656 C 164.910156 195.3125 164.742188 195.5625 164.625 195.84375 C 164.507812 196.125 164.449219 196.421875 164.449219 196.726562 C 164.449219 197.179688 164.492188 197.628906 164.582031 198.078125 C 164.671875 198.523438 164.800781 198.953125 164.976562 199.375 C 165.148438 199.792969 165.363281 200.191406 165.617188 200.570312 C 165.867188 200.949219 166.15625 201.296875 166.476562 201.617188 C 166.796875 201.941406 167.148438 202.226562 167.523438 202.480469 C 167.902344 202.730469 168.300781 202.945312 168.71875 203.117188 C 169.140625 203.292969 169.574219 203.421875 170.019531 203.511719 C 170.464844 203.601562 170.914062 203.644531 171.367188 203.644531 Z M 171.367188 203.644531 "/><g clip-rule="nonzero" clip-path="url(#clip1)"><path style=" stroke:none;fill-rule:nonzero;fill:rgb(97.24884%,98.429871%,97.24884%);fill-opacity:1;" d="M 150.613281 196.726562 C 150.613281 217.0625 167.175781 233.625 187.511719 233.625 C 207.847656 233.625 224.410156 217.0625 224.410156 196.726562 L 224.410156 182.890625 L 150.613281 182.890625 Z M 192.125 219.789062 L 182.898438 219.789062 C 182.59375 219.789062 182.300781 219.730469 182.015625 219.613281 C 181.734375 219.496094 181.484375 219.328125 181.269531 219.113281 C 181.050781 218.898438 180.886719 218.648438 180.769531 218.367188 C 180.652344 218.082031 180.59375 217.789062 180.59375 217.484375 C 180.59375 217.175781 180.652344 216.882812 180.769531 216.601562 C 180.886719 216.316406 181.050781 216.066406 181.269531 215.851562 C 181.484375 215.636719 181.734375 215.46875 182.015625 215.351562 C 182.300781 215.234375 182.59375 215.175781 182.898438 215.175781 L 192.125 215.175781 C 192.429688 215.175781 192.722656 215.234375 193.007812 215.351562 C 193.289062 215.46875 193.539062 215.636719 193.753906 215.851562 C 193.972656 216.066406 194.136719 216.316406 194.253906 216.601562 C 194.371094 216.882812 194.429688 217.175781 194.429688 217.484375 C 194.429688 217.789062 194.371094 218.082031 194.253906 218.367188 C 194.136719 218.648438 193.972656 218.898438 193.753906 219.113281 C 193.539062 219.328125 193.289062 219.496094 193.007812 219.613281 C 192.722656 219.730469 192.429688 219.789062 192.125 219.789062 Z M 166.753906 189.808594 L 178.285156 189.808594 C 179 189.808594 179.695312 189.921875 180.375 190.136719 C 181.054688 190.355469 181.6875 190.671875 182.269531 191.085938 C 182.847656 191.496094 183.355469 191.988281 183.785156 192.558594 C 184.214844 193.125 184.546875 193.746094 184.785156 194.421875 L 190.238281 194.421875 C 190.476562 193.746094 190.808594 193.125 191.238281 192.558594 C 191.667969 191.988281 192.175781 191.496094 192.757812 191.085938 C 193.339844 190.671875 193.96875 190.355469 194.648438 190.136719 C 195.328125 189.921875 196.023438 189.808594 196.738281 189.808594 L 208.269531 189.808594 C 208.722656 189.808594 209.171875 189.851562 209.617188 189.941406 C 210.0625 190.03125 210.496094 190.160156 210.914062 190.335938 C 211.335938 190.507812 211.734375 190.722656 212.113281 190.972656 C 212.488281 191.226562 212.839844 191.511719 213.160156 191.835938 C 213.480469 192.15625 213.769531 192.503906 214.019531 192.882812 C 214.273438 193.261719 214.488281 193.660156 214.660156 194.078125 C 214.835938 194.5 214.964844 194.929688 215.054688 195.375 C 215.144531 195.824219 215.1875 196.273438 215.1875 196.726562 C 215.1875 197.484375 215.109375 198.234375 214.960938 198.976562 C 214.8125 199.714844 214.59375 200.4375 214.304688 201.136719 C 214.011719 201.835938 213.65625 202.5 213.238281 203.128906 C 212.816406 203.757812 212.339844 204.339844 211.804688 204.875 C 211.269531 205.410156 210.6875 205.886719 210.058594 206.308594 C 209.429688 206.730469 208.765625 207.085938 208.066406 207.375 C 207.367188 207.664062 206.644531 207.882812 205.902344 208.03125 C 205.160156 208.179688 204.414062 208.257812 203.65625 208.257812 L 201.347656 208.257812 C 200.691406 208.257812 200.035156 208.203125 199.386719 208.089844 C 198.734375 207.976562 198.097656 207.8125 197.476562 207.589844 C 196.855469 207.367188 196.257812 207.09375 195.683594 206.769531 C 195.109375 206.445312 194.566406 206.078125 194.054688 205.660156 C 193.542969 205.242188 193.074219 204.785156 192.640625 204.285156 C 192.207031 203.789062 191.820312 203.257812 191.480469 202.691406 C 191.136719 202.128906 190.847656 201.539062 190.605469 200.925781 C 190.367188 200.308594 190.179688 199.679688 190.050781 199.03125 L 184.976562 199.03125 C 184.84375 199.679688 184.65625 200.308594 184.417969 200.921875 C 184.175781 201.539062 183.886719 202.128906 183.546875 202.691406 C 183.203125 203.257812 182.816406 203.789062 182.386719 204.285156 C 181.953125 204.785156 181.480469 205.242188 180.96875 205.660156 C 180.457031 206.074219 179.917969 206.445312 179.339844 206.769531 C 178.765625 207.09375 178.167969 207.367188 177.546875 207.589844 C 176.925781 207.808594 176.289062 207.976562 175.640625 208.089844 C 174.988281 208.203125 174.335938 208.257812 173.675781 208.257812 L 171.367188 208.257812 C 170.613281 208.257812 169.863281 208.179688 169.121094 208.03125 C 168.378906 207.882812 167.65625 207.664062 166.957031 207.375 C 166.261719 207.085938 165.597656 206.730469 164.96875 206.308594 C 164.335938 205.886719 163.753906 205.410156 163.21875 204.875 C 162.683594 204.339844 162.207031 203.757812 161.785156 203.128906 C 161.367188 202.5 161.011719 201.835938 160.71875 201.136719 C 160.429688 200.4375 160.210938 199.714844 160.0625 198.976562 C 159.914062 198.234375 159.839844 197.484375 159.835938 196.726562 C 159.835938 196.273438 159.882812 195.824219 159.96875 195.375 C 160.058594 194.929688 160.191406 194.5 160.363281 194.078125 C 160.539062 193.660156 160.75 193.261719 161.003906 192.882812 C 161.253906 192.503906 161.542969 192.15625 161.863281 191.835938 C 162.183594 191.511719 162.535156 191.226562 162.910156 190.972656 C 163.289062 190.722656 163.6875 190.507812 164.109375 190.335938 C 164.527344 190.160156 164.960938 190.03125 165.40625 189.941406 C 165.851562 189.851562 166.300781 189.808594 166.753906 189.808594 Z M 166.753906 189.808594 "/></g><g clip-rule="nonzero" clip-path="url(#clip2)"><path style=" stroke:none;fill-rule:nonzero;fill:rgb(97.24884%,98.429871%,97.24884%);fill-opacity:1;" d="M 215.125 143.117188 C 215.058594 142.867188 214.957031 142.636719 214.816406 142.421875 C 214.671875 142.207031 214.5 142.023438 214.296875 141.863281 C 214.09375 141.707031 213.871094 141.585938 213.628906 141.503906 C 213.386719 141.417969 213.136719 141.378906 212.878906 141.375 L 194.429688 141.375 C 193.660156 141.371094 193.046875 141.679688 192.585938 142.300781 L 187.511719 149.070312 L 182.4375 142.300781 C 181.980469 141.679688 181.363281 141.371094 180.59375 141.375 L 162.144531 141.375 C 161.886719 141.378906 161.636719 141.417969 161.394531 141.503906 C 161.152344 141.585938 160.929688 141.707031 160.726562 141.863281 C 160.523438 142.023438 160.351562 142.207031 160.210938 142.421875 C 160.066406 142.636719 159.964844 142.867188 159.898438 143.117188 L 155.097656 159.828125 L 220.199219 159.828125 Z M 215.125 143.117188 "/></g><g clip-rule="nonzero" clip-path="url(#clip3)"><path style=" stroke:none;fill-rule:nonzero;fill:rgb(97.24884%,98.429871%,97.24884%);fill-opacity:1;" d="M 231.332031 173.664062 L 223.910156 173.664062 L 221.601562 164.4375 L 153.777344 164.4375 L 151.113281 173.664062 L 143.691406 173.664062 C 143.386719 173.664062 143.09375 173.722656 142.8125 173.839844 C 142.527344 173.957031 142.277344 174.125 142.0625 174.339844 C 141.847656 174.554688 141.679688 174.804688 141.5625 175.085938 C 141.445312 175.371094 141.386719 175.664062 141.386719 175.96875 C 141.386719 176.277344 141.445312 176.570312 141.5625 176.851562 C 141.679688 177.136719 141.847656 177.386719 142.0625 177.601562 C 142.277344 177.816406 142.527344 177.984375 142.8125 178.101562 C 143.09375 178.21875 143.386719 178.277344 143.691406 178.277344 L 231.332031 178.277344 C 231.636719 178.277344 231.929688 178.21875 232.214844 178.101562 C 232.496094 177.984375 232.746094 177.816406 232.960938 177.601562 C 233.179688 177.386719 233.34375 177.136719 233.460938 176.851562 C 233.578125 176.570312 233.636719 176.277344 233.636719 175.96875 C 233.636719 175.664062 233.578125 175.371094 233.460938 175.085938 C 233.34375 174.804688 233.179688 174.554688 232.960938 174.339844 C 232.746094 174.125 232.496094 173.957031 232.214844 173.839844 C 231.929688 173.722656 231.636719 173.664062 231.332031 173.664062 Z M 231.332031 173.664062 "/></g></g></svg>